<?xml version="1.0" standalone="no"?>
<!DOCTYPE svg PUBLIC "-//W3C//DTD SVG 20010904//EN"
 "http://www.w3.org/TR/2001/REC-SVG-20010904/DTD/svg10.dtd">
<svg version="1.0" xmlns="http://www.w3.org/2000/svg"
 width="1580.000000pt" height="1080.000000pt" viewBox="0 0 1580.000000 1080.000000"
 preserveAspectRatio="xMidYMid meet">

<g transform="translate(0.000000,1080.000000) scale(0.100000,-0.100000)"
fill="#000000" stroke="none">
<path d="M1042 9206 c-126 -47 -214 -127 -270 -244 l-37 -77 -3 -2167 c-2
-1738 0 -2168 10 -2168 7 0 22 7 32 15 24 18 72 20 79 3 4 -9 6 -7 6 3 1 18
66 25 91 9 12 -8 12 -10 1 -10 -8 0 -11 -3 -8 -7 4 -3 15 1 24 9 10 8 35 18
55 21 34 5 41 2 78 -36 22 -23 40 -49 40 -59 0 -9 4 -20 10 -23 12 -7 10 -114
-2 -138 -14 -28 -20 -311 -9 -407 6 -48 19 -102 31 -125 11 -21 20 -47 20 -57
0 -9 5 -20 10 -23 6 -4 10 -23 9 -44 -3 -39 14 -73 50 -97 14 -11 21 -26 21
-50 0 -19 9 -53 20 -77 15 -32 18 -50 11 -72 -10 -37 0 -66 31 -91 19 -15 30
-43 52 -134 15 -63 32 -133 38 -155 11 -43 13 -52 26 -130 11 -60 19 -81 45
-118 18 -27 19 -32 5 -60 -17 -37 -6 -78 31 -111 12 -11 21 -26 21 -34 0 -9 9
-45 21 -81 31 -102 37 -123 44 -168 5 -35 4 -42 -13 -47 -23 -8 -79 19 -92 43
-13 26 -70 25 -93 0 -14 -15 -16 -24 -8 -32 12 -12 15 -58 4 -55 -7 2 -81 -9
-123 -18 -8 -2 -41 -8 -73 -13 -32 -5 -69 -17 -83 -26 -13 -9 -29 -13 -33 -10
-15 9 -41 -25 -41 -54 0 -15 -7 -36 -15 -47 -8 -10 -15 -22 -15 -25 0 -11 61
-22 125 -23 46 -1 60 -4 60 -16 0 -9 -11 -16 -27 -18 -16 -2 -28 -8 -28 -14 0
-6 -12 -8 -29 -5 -33 7 -74 -9 -90 -36 -10 -15 -9 -17 12 -12 15 4 30 1 40 -9
8 -9 28 -15 44 -15 17 1 21 3 11 6 -10 2 -18 9 -18 14 0 12 61 9 78 -4 8 -7
20 -6 35 1 34 17 96 20 101 5 8 -20 26 -15 35 11 5 13 19 26 30 29 27 7 17 41
-21 68 -28 20 -31 21 -72 5 -56 -21 -95 -8 -88 30 4 23 32 55 32 38 0 -5 4 -3
9 5 5 8 21 15 35 17 48 5 141 28 146 36 3 4 33 10 65 14 66 7 83 16 96 51 5
13 13 23 19 23 14 0 44 -69 41 -96 -1 -11 7 -32 19 -46 11 -15 31 -61 45 -103
13 -42 28 -82 32 -88 5 -7 17 -35 26 -63 14 -41 16 -59 8 -95 -6 -24 -11 -59
-11 -76 0 -18 -5 -33 -11 -33 -6 0 -9 -10 -7 -22 l3 -23 1638 -3 1637 -2 -6
25 c-3 14 -2 25 4 25 13 0 25 72 23 138 -1 30 3 60 10 68 16 20 106 64 131 64
11 0 34 6 51 14 18 7 55 18 82 24 28 5 79 17 115 26 90 22 223 44 295 50 102
8 159 19 185 35 13 9 24 14 25 12 1 -12 425 78 471 101 24 11 63 -4 65 -25 1
-16 -1 -220 -5 -405 l-3 -152 46 1 c25 1 37 4 26 6 -39 10 -47 23 -30 49 12
19 13 28 3 43 -10 17 -9 23 7 41 18 20 18 22 2 31 -22 13 -22 27 0 52 17 18
17 19 0 28 -21 12 -22 32 -2 49 14 12 14 15 -1 31 -15 17 -15 21 -1 42 14 22
14 26 0 40 -15 14 -15 18 1 42 15 22 15 26 1 31 -21 8 -19 31 4 51 19 15 19
17 3 29 -29 22 -3 48 52 52 57 4 74 -19 35 -49 -18 -14 -20 -19 -8 -19 25 0
33 -32 13 -47 -10 -7 -21 -13 -26 -13 -21 0 -5 -19 20 -22 38 -4 36 -38 -3
-58 l-30 -15 40 -5 c50 -6 61 -38 19 -60 l-26 -14 31 -9 c36 -9 39 -22 10 -53
l-20 -22 25 -6 c32 -8 33 -26 5 -52 l-21 -19 28 -5 c33 -6 40 -22 19 -44 -12
-11 -35 -16 -77 -16 -84 0 -63 -14 25 -17 78 -3 93 -10 74 -37 -9 -12 -31 -20
-68 -23 -99 -9 -65 -13 114 -13 l177 0 2 68 c0 37 2 101 2 143 1 43 6 82 13
90 13 15 8 55 -10 77 -6 8 -6 12 0 12 7 0 7 16 2 44 -12 68 -8 168 8 162 7 -3
13 1 13 9 0 8 3 15 6 15 12 0 33 -35 34 -56 0 -11 5 -25 12 -32 9 -9 7 -12
-11 -12 -12 0 -19 -4 -16 -10 3 -5 14 -10 24 -10 12 0 21 -14 29 -46 7 -25 10
-49 7 -54 -2 -4 4 -34 15 -65 11 -32 20 -66 20 -76 0 -10 6 -24 13 -31 20 -20
36 -74 44 -153 l8 -70 38 -3 39 -3 -3 48 c-2 27 2 58 10 71 11 21 10 26 -8 39
-12 8 -21 22 -21 32 0 10 -6 24 -14 30 -7 6 -12 23 -10 38 1 15 -4 32 -12 37
-22 17 -42 114 -39 194 1 40 -2 75 -7 78 -4 3 -6 9 -3 14 3 5 -3 23 -14 41
-14 22 -18 42 -14 63 14 69 56 94 69 40 3 -13 11 -21 17 -17 6 4 8 -3 3 -20
-8 -33 10 -45 30 -21 9 13 13 34 11 62 -3 27 0 42 7 42 6 0 5 4 -3 9 -18 12
-26 158 -9 178 6 7 8 16 5 19 -3 4 0 13 8 20 8 8 12 21 9 29 -4 10 1 15 15 15
18 0 20 3 11 19 -12 24 -13 71 -1 71 5 0 12 -10 16 -22 6 -19 8 -20 12 -6 2
10 -5 31 -16 47 -11 15 -19 38 -16 49 2 11 -3 26 -11 33 -11 9 -13 24 -8 59 5
42 4 49 -14 59 -20 11 -20 17 -16 207 4 155 2 200 -9 213 -7 9 -14 32 -16 51
-2 19 -14 47 -27 63 -13 16 -24 33 -24 37 0 15 -43 50 -61 50 -15 0 -73 39
-110 75 -9 8 -25 15 -36 15 -12 0 -24 7 -27 16 -5 12 -9 14 -20 5 -17 -15 -33
4 -42 48 -7 36 -53 68 -62 43 -2 -7 -8 -9 -14 -6 -6 4 -21 -6 -33 -22 l-23
-29 -12 30 -12 30 -14 -32 c-16 -38 -41 -43 -52 -12 -8 21 -9 21 -25 -5 -11
-15 -23 -23 -32 -20 -12 5 -15 25 -15 95 0 49 4 89 9 89 4 0 9 12 10 28 0 15
4 56 7 92 l5 65 -52 78 c-28 42 -55 77 -59 77 -8 0 -39 46 -115 172 -22 36
-53 87 -69 112 -32 52 -29 72 11 87 16 5 51 21 78 34 28 13 68 29 90 36 22 6
56 18 76 25 48 17 203 44 253 44 95 0 255 -50 279 -87 4 -7 12 -13 17 -13 20
0 99 -62 165 -129 39 -40 83 -79 100 -88 16 -9 38 -26 48 -40 10 -13 32 -30
49 -39 16 -8 34 -28 39 -44 6 -16 21 -36 35 -44 13 -9 32 -33 43 -54 11 -20
34 -53 52 -72 18 -19 48 -57 67 -85 18 -27 46 -62 60 -76 35 -33 104 -116 116
-137 5 -9 12 -19 15 -22 26 -21 42 -70 48 -140 5 -69 3 -83 -12 -100 -13 -15
-18 -33 -16 -62 1 -24 -3 -44 -10 -49 -9 -5 -9 -17 -1 -50 6 -24 7 -46 3 -49
-13 -9 -30 -93 -22 -108 5 -8 7 -24 4 -36 -2 -15 -1 -16 4 -6 5 8 14 15 21 16
29 2 32 5 32 26 0 20 1 20 13 4 12 -16 15 -16 42 -2 31 16 130 22 121 8 -3 -5
-30 -9 -61 -10 -40 -1 -61 -7 -77 -22 -12 -11 -20 -21 -17 -22 33 -21 80 -39
104 -41 25 -2 31 2 33 22 3 19 6 21 13 10 8 -12 12 -11 23 4 11 14 15 15 19 5
4 -10 10 -8 21 6 14 17 16 18 16 3 0 -20 1 -20 35 -7 14 5 23 15 20 20 -3 6 4
14 17 19 l23 10 -22 0 c-34 1 -28 21 7 21 17 0 33 7 39 17 7 13 12 15 23 5 11
-9 17 -9 26 0 9 9 12 356 12 1430 l0 1419 -42 -1 c-76 -2 -110 12 -132 53 -19
35 -19 39 -3 72 9 20 17 49 17 65 0 16 14 49 30 73 17 25 30 54 30 66 0 12 5
21 11 21 7 0 9 11 6 30 -6 27 -4 30 17 30 13 0 26 -6 29 -14 7 -19 -10 -152
-23 -176 -7 -13 -7 -21 0 -25 6 -4 8 -21 4 -41 -7 -38 16 -84 41 -84 13 0 15
162 15 1318 0 1421 2 1360 -53 1469 -54 105 -164 199 -274 233 -65 20 -87 20
-3512 19 l-3446 0 -63 -23z m3283 -26 c-3 -5 -10 -10 -16 -10 -5 0 -9 5 -9 10
0 6 7 10 16 10 8 0 12 -4 9 -10z m746 -17 c17 -43 19 -93 5 -93 -14 0 -35 39
-46 88 -7 28 -5 32 11 32 12 0 24 -11 30 -27z m1567 4 c2 -10 -3 -17 -12 -17
-9 0 -16 2 -16 4 0 2 -3 12 -6 21 -5 13 -2 16 12 13 10 -2 20 -11 22 -21z
m-1485 -128 c19 -34 15 -49 -12 -49 -48 0 -58 72 -11 79 3 1 13 -13 23 -30z
m-126 -35 c-3 -3 3 -21 13 -39 10 -19 22 -51 26 -72 4 -21 13 -47 20 -58 18
-25 18 -45 1 -45 -15 0 -62 98 -75 157 -10 42 -6 63 11 63 5 0 8 -3 4 -6z
m-435 -29 c12 -27 -2 -55 -28 -55 -18 0 -39 44 -31 64 10 25 46 19 59 -9z
m-252 -96 c0 -22 -4 -38 -8 -35 -12 7 -13 76 -2 76 6 0 10 -18 10 -41z m2139
1 c13 -45 7 -80 -14 -80 -26 0 -37 36 -25 80 6 22 14 40 19 40 4 0 13 -18 20
-40z m751 -94 c0 -13 -7 -26 -15 -30 -11 -4 -15 1 -15 18 0 12 3 26 7 29 13
14 23 6 23 -17z m-576 -21 c3 -8 1 -25 -3 -37 -9 -23 -9 -23 -20 5 -6 16 -11
33 -11 38 0 15 27 10 34 -6z m-1586 -57 c25 -49 27 -66 10 -103 -23 -52 -48
-21 -65 82 -12 72 21 84 55 21z m-1739 -47 c20 -6 48 -12 63 -15 14 -2 35 -9
46 -15 22 -12 78 -4 163 23 27 8 63 12 85 8 22 -3 71 -6 109 -6 39 -1 84 -6
100 -13 17 -6 67 -21 113 -34 87 -24 94 -30 191 -145 23 -27 71 -149 71 -180
0 -7 10 -35 21 -61 12 -27 26 -57 30 -68 10 -25 33 -107 34 -120 0 -5 3 -12 7
-15 10 -8 48 -127 48 -153 0 -13 5 -28 11 -34 5 -5 14 -32 17 -59 6 -37 12
-48 24 -46 8 1 21 -5 28 -13 7 -8 22 -15 34 -15 31 0 66 -28 66 -51 0 -11 5
-30 11 -41 19 -35 21 -127 5 -206 -8 -43 -18 -102 -21 -132 -14 -132 -16 -138
-40 -154 l-23 -15 0 67 c0 37 -4 78 -9 92 -9 22 -12 15 -17 -45 -4 -38 -12
-79 -18 -90 -7 -11 -20 -35 -30 -54 -18 -35 -51 -71 -65 -71 -5 0 -14 -13 -21
-29 -7 -16 -22 -31 -33 -34 -14 -4 -19 -13 -19 -34 1 -15 -2 -56 -5 -89 -5
-50 -3 -63 9 -67 20 -8 21 -27 2 -27 -7 0 -16 8 -20 18 -3 9 -17 33 -32 52
-18 25 -25 45 -23 75 2 44 -15 95 -31 95 -5 0 -13 12 -16 27 -7 27 -54 83 -70
83 -5 0 -27 16 -48 36 -22 19 -52 38 -68 41 -17 3 -43 23 -65 49 -41 49 -62
54 -134 29 -32 -12 -63 -14 -115 -10 -48 5 -74 3 -79 -4 -3 -6 -11 -8 -17 -5
-6 4 -8 2 -5 -3 4 -6 -9 -23 -27 -37 -19 -14 -38 -35 -41 -47 -4 -11 -28 -39
-53 -62 -98 -88 -142 -137 -142 -160 0 -18 -2 -19 -10 -7 -8 13 -10 12 -10 -2
0 -14 8 -18 36 -18 19 0 43 -4 53 -9 9 -5 45 -11 78 -13 50 -2 59 -5 50 -17
-9 -10 -7 -16 6 -26 9 -7 17 -17 17 -24 0 -12 36 -29 85 -38 17 -4 33 -11 36
-16 7 -11 136 20 145 34 2 5 12 5 21 2 11 -4 14 -3 9 5 -5 8 0 12 12 12 11 0
22 -7 26 -15 6 -17 39 -13 88 10 15 8 41 16 58 20 37 8 56 38 35 55 -10 8 -41
10 -107 5 -131 -10 -133 -10 -145 -18 -13 -8 -153 -26 -198 -25 -66 1 -78 47
-12 48 36 0 85 5 95 9 2 0 -4 11 -12 23 -32 46 -38 44 192 65 54 5 65 3 77
-13 11 -15 31 -20 112 -24 92 -5 98 -6 101 -27 2 -13 8 -23 13 -23 5 0 9 -27
9 -60 0 -33 5 -69 12 -79 15 -24 4 -51 -22 -51 -11 0 -23 -8 -27 -17 -15 -42
-80 -71 -97 -44 -3 5 -15 7 -26 4 -11 -3 -20 0 -20 6 0 6 -9 11 -20 11 -21 0
-24 -12 -21 -75 1 -16 -4 -38 -12 -49 -13 -18 -15 -18 -40 -2 -20 14 -30 15
-46 6 -12 -6 -21 -16 -21 -23 0 -15 -53 -57 -72 -57 -22 1 -55 32 -40 37 17 7
5 71 -19 96 -15 16 -27 19 -67 14 -31 -4 -68 0 -98 9 -46 14 -84 11 -84 -6 0
-7 -20 -3 -71 16 -19 6 -32 55 -22 80 4 10 0 20 -10 25 -9 6 -13 17 -10 30 5
19 3 21 -20 17 -15 -3 -27 -1 -27 3 0 5 -8 9 -18 9 -10 0 -28 11 -40 25 -12
14 -27 25 -33 25 -6 0 -10 12 -9 28 3 46 1 54 -15 48 -9 -3 -15 0 -15 9 0 31
-69 38 -99 11 -16 -14 -21 -14 -59 4 -31 15 -42 26 -42 43 0 18 -10 28 -42 42
-24 11 -47 20 -53 21 -26 4 -55 17 -55 26 0 5 -15 28 -34 51 -19 23 -45 75
-60 116 -14 41 -32 79 -41 83 -10 6 -13 17 -9 32 3 15 1 25 -8 28 -18 7 -19
298 -1 319 6 8 15 38 19 68 4 35 13 56 25 64 11 7 19 18 19 25 0 7 5 10 10 7
6 -3 13 2 17 11 4 10 2 19 -5 22 -18 6 -14 30 7 42 23 12 39 86 22 103 -14 14
-14 67 0 67 7 0 5 9 -5 24 -15 24 -13 48 7 74 18 23 18 85 0 104 -21 24 -26
134 -6 153 7 8 13 18 13 23 0 25 105 77 207 102 18 4 39 15 48 24 9 9 28 19
43 23 15 3 42 14 60 24 17 10 32 16 32 13 0 -3 6 -1 14 3 23 12 84 14 125 4z
m1809 -116 c15 -32 15 -52 1 -61 -15 -9 -26 5 -33 49 -8 44 14 53 32 12z m-65
-250 c6 -44 5 -71 -2 -78 -12 -12 -28 23 -32 69 -8 105 22 113 34 9z m2445 33
c16 -16 15 -38 -2 -38 -13 0 -26 20 -26 41 0 13 14 11 28 -3z m-130 -324 c27
-42 38 -95 25 -119 -8 -14 -13 -11 -35 22 -32 49 -41 78 -34 109 9 32 17 30
44 -12z m860 12 c9 -21 13 -123 15 -408 0 -42 -6 -79 -17 -102 -19 -41 -16
-39 -50 -27 -24 10 -28 24 -13 49 5 7 3 12 -7 12 -33 0 -40 41 -44 258 l-4
212 33 15 c50 21 74 19 87 -9z m-2197 -41 c61 -3 72 -7 123 -44 54 -40 86 -83
86 -116 0 -9 7 -26 15 -39 9 -13 16 -36 15 -52 0 -67 -1 -79 -10 -89 -5 -6
-12 -26 -15 -45 -3 -19 -15 -52 -25 -73 -11 -21 -20 -44 -20 -51 0 -13 -63
-86 -75 -86 -3 0 -18 -11 -33 -25 -15 -14 -32 -25 -38 -25 -25 0 -57 -36 -50
-57 8 -24 33 -36 106 -53 30 -7 63 -19 72 -28 18 -16 45 -17 114 -7 34 6 45 3
71 -19 26 -22 33 -37 43 -99 14 -82 28 -127 42 -127 11 0 72 -42 76 -52 2 -5
10 -8 18 -8 7 0 32 -25 54 -55 54 -74 77 -73 70 3 -1 18 4 22 27 22 15 0 39
-9 52 -19 l24 -19 -40 -7 c-28 -4 -43 -12 -46 -25 -6 -24 3 -70 14 -70 5 0 9
-13 9 -30 0 -32 30 -56 65 -51 26 4 36 20 28 48 -3 13 -1 23 4 23 14 0 63 -57
63 -73 0 -31 28 -68 68 -89 49 -25 57 -34 41 -44 -6 -3 -15 -1 -19 6 -4 7 -13
9 -19 6 -20 -13 -11 -37 18 -47 37 -13 44 -30 35 -88 -4 -29 -16 -53 -32 -68
l-25 -23 22 -21 c28 -26 71 -94 71 -113 0 -14 57 -46 83 -46 32 0 48 12 37 26
-7 7 -17 11 -23 9 -16 -6 -28 4 -50 37 -18 29 -23 98 -7 98 5 0 7 7 4 15 -4
10 0 15 10 15 9 0 20 -8 23 -17 4 -10 14 -23 22 -29 12 -9 19 -7 32 10 20 25
15 39 -12 31 -10 -4 -19 -2 -19 4 0 5 -10 11 -22 13 -15 2 -32 19 -49 51 -25
47 -25 49 -27 305 0 141 -4 278 -7 303 -7 50 10 77 41 65 14 -5 16 -16 10 -74
-11 -101 -10 -112 14 -134 20 -19 20 -22 6 -30 -18 -10 -21 -59 -6 -89 6 -10
21 -19 34 -19 26 0 50 -22 38 -35 -6 -8 3 -5 45 12 12 5 15 2 11 -9 -4 -8 2
-22 13 -31 29 -26 23 -53 -22 -97 -22 -21 -38 -44 -34 -50 8 -13 42 -13 50 0
8 12 72 5 90 -10 6 -5 17 -5 24 -1 15 10 65 -2 87 -20 18 -15 18 -38 -2 -77
-23 -48 -61 -70 -109 -64 -22 2 -47 11 -56 18 -9 8 -24 12 -33 8 -21 -8 -22
-62 -1 -70 18 -7 20 -34 3 -34 -8 0 -5 -7 6 -15 27 -21 94 -19 142 4 67 32 92
34 104 10 7 -11 28 -27 47 -36 l36 -15 -27 -17 c-28 -18 -141 -35 -226 -32
-38 0 -42 -1 -29 -12 16 -12 19 -43 5 -65 -4 -6 -27 -12 -51 -12 -24 0 -46 -4
-49 -8 -2 -4 -62 -9 -132 -10 -73 -2 -134 -7 -141 -14 -7 -6 -13 -7 -13 -2 0
14 -131 4 -156 -12 -22 -15 -24 -13 -32 29 -5 24 -55 109 -67 114 -8 3 -15 16
-15 29 0 17 -6 24 -19 24 -15 0 -19 8 -19 46 -1 25 -5 51 -10 58 -17 23 -45
163 -47 238 0 27 -14 33 -30 12 -14 -18 -14 -18 -15 3 0 13 5 22 13 20 6 -1
13 10 15 25 2 18 -4 31 -20 42 -20 14 -20 16 -4 16 14 0 17 6 14 24 -3 14 -2
30 2 36 8 14 -34 123 -49 128 -6 2 -11 -1 -11 -7 0 -6 -4 -11 -10 -11 -5 0
-10 10 -10 23 0 13 -5 28 -12 35 -7 7 -8 12 -4 12 4 0 -9 19 -29 42 -32 38
-35 48 -31 85 2 24 -1 46 -7 50 -12 7 -39 -26 -30 -40 3 -5 9 -3 15 4 6 9 7 0
2 -26 -14 -77 -2 -116 76 -253 42 -74 40 -86 -10 -78 -25 4 -52 1 -73 -7 -43
-18 -86 -76 -83 -110 8 -70 96 -141 142 -116 25 13 34 46 22 79 -5 14 -4 27 2
35 13 16 3 43 -18 48 -14 3 -14 5 3 11 11 4 27 11 35 15 8 4 26 2 38 -5 13 -6
19 -13 13 -15 -7 -3 -13 -38 -15 -89 -2 -47 -10 -126 -17 -175 -7 -50 -9 -102
-6 -116 4 -14 27 -56 52 -93 25 -37 45 -71 45 -74 0 -4 18 -26 39 -50 23 -25
38 -49 34 -57 -8 -24 -43 1 -59 43 -8 20 -20 47 -26 59 -15 30 -85 63 -132 63
-45 0 -95 22 -127 56 -26 27 -99 35 -99 10 0 -7 -7 -19 -15 -26 -11 -9 -12
-17 -4 -31 11 -21 5 -39 -13 -39 -6 0 -25 11 -43 24 -21 17 -36 22 -46 15 -8
-5 -22 -6 -32 -3 -10 3 -26 -1 -35 -9 -19 -16 -82 -31 -82 -19 0 11 -80 92
-91 92 -5 0 -17 -9 -26 -20 -10 -11 -26 -20 -35 -20 -10 0 -23 -11 -29 -24
-10 -21 -16 -23 -49 -19 -26 4 -46 0 -61 -11 -26 -18 -65 -21 -74 -6 -3 5 -19
7 -35 3 -28 -5 -30 -3 -29 23 0 16 3 23 6 16 3 -8 11 -5 24 12 24 31 24 33 -7
78 -15 20 -27 50 -28 66 -1 32 -21 62 -41 62 -31 0 -87 112 -66 133 5 5 28 -1
52 -14 24 -12 55 -23 69 -24 14 -1 52 -5 85 -9 33 -4 91 -3 128 3 74 10 97 7
97 -15 0 -20 14 -17 37 9 30 33 37 72 16 93 -10 10 -19 28 -20 42 -2 28 -29
72 -43 72 -6 0 -10 6 -10 14 0 22 -13 27 -88 33 -93 8 -185 4 -199 -10 -3 -4
-17 -7 -30 -7 -14 0 -44 -16 -68 -36 -35 -28 -48 -33 -62 -26 -13 8 -24 5 -42
-9 -28 -23 -51 -25 -51 -4 0 22 -40 41 -51 24 -5 -8 -9 -9 -10 -4 -1 6 -3 15
-4 20 -6 26 -7 31 -9 40 -1 6 -8 37 -15 69 -7 33 -11 74 -8 91 5 29 3 32 -14
28 -12 -4 -19 0 -19 9 0 22 12 29 28 16 11 -10 19 -6 43 22 16 19 29 42 29 51
0 9 7 22 15 29 22 18 43 68 47 112 3 30 0 38 -16 42 -16 4 -18 8 -8 18 16 16
15 28 -3 28 -8 0 -15 9 -15 21 0 11 4 18 8 15 5 -3 24 10 42 29 19 19 44 35
55 35 12 0 36 7 52 15 68 34 170 51 251 42 42 -5 96 -10 120 -12 23 -2 49 -6
58 -9 9 -3 26 -3 39 0 20 5 22 10 15 38 -4 17 -23 49 -43 70 -19 22 -38 52
-41 69 -3 16 -20 42 -37 58 -29 27 -31 32 -35 130 -4 80 -2 106 11 125 8 13
15 28 15 33 0 6 26 37 58 70 51 52 64 60 103 64 24 2 51 1 59 -1 8 -3 45 -6
81 -7z m1146 -16 c1 -18 10 -40 19 -50 16 -18 16 -19 -13 -19 -30 0 -52 23
-33 35 5 3 7 12 3 20 -6 17 3 45 14 45 4 0 9 -14 10 -31z m-97 -94 c0 -8 -6
-15 -14 -15 -17 0 -28 14 -19 24 12 12 33 6 33 -9z m135 -46 c8 -12 -32 -59
-51 -59 -7 0 -14 -6 -17 -12 -8 -23 -15 -4 -10 28 6 41 61 71 78 43z m-237
-44 c2 -2 -1 -13 -7 -24 -10 -18 -15 -19 -36 -9 -42 19 -26 53 20 41 11 -3 21
-7 23 -8z m-26 -104 c4 -32 -19 -46 -54 -32 -22 8 -28 17 -28 40 0 26 4 30 33
33 35 3 43 -4 49 -41z m113 -100 c9 -19 26 -32 44 -36 26 -6 31 -11 35 -48 8
-71 6 -87 -11 -87 -8 0 -17 9 -20 19 -6 22 -36 38 -41 22 -6 -17 -49 -13 -56
5 -4 11 -14 14 -35 9 -24 -5 -32 -2 -41 14 -8 16 -8 21 2 21 18 1 88 67 88 83
0 13 9 27 16 27 2 0 10 -13 19 -29z m75 0 c-5 -11 -15 -23 -22 -27 -7 -5 -8
-2 -3 7 21 37 44 55 25 20z m-4609 -59 c7 -19 5 -22 -16 -22 -18 0 -25 6 -25
18 0 38 28 41 41 4z m4169 -18 c0 -8 7 -17 15 -20 31 -12 11 -56 -22 -48 -24
7 -41 73 -21 85 15 10 28 2 28 -17z m-4251 -20 c30 -17 44 -53 31 -74 -6 -9
-9 -9 -14 -1 -15 24 -89 53 -127 49 -26 -2 -39 1 -39 9 0 15 15 24 54 33 39 9
59 5 95 -16z m-80 -140 c28 -26 53 -55 57 -66 4 -12 13 -18 27 -16 17 3 23 -5
34 -47 7 -27 13 -64 13 -81 0 -17 3 -46 6 -63 5 -26 10 -30 29 -25 31 8 38 -8
19 -46 -14 -27 -14 -36 -3 -58 17 -36 28 -156 34 -392 6 -222 10 -253 31 -274
13 -14 13 -23 -6 -85 -11 -38 -26 -73 -33 -78 -6 -6 -39 -11 -71 -12 -33 -1
-62 -3 -65 -4 -3 -1 -16 4 -28 11 -15 8 -29 10 -40 4 -10 -5 -31 -8 -48 -6
-83 10 -165 11 -165 2 0 -6 -27 -8 -65 -6 -36 1 -65 0 -65 -4 0 -5 -4 -8 -10
-8 -5 0 -10 7 -10 15 0 8 -4 15 -10 15 -5 0 -10 -5 -10 -11 0 -7 -8 -9 -22 -4
-41 13 -153 23 -158 14 -3 -4 -18 -2 -34 6 -30 16 -78 20 -90 8 -17 -17 -70
-11 -87 11 -15 18 -21 19 -37 9 -16 -10 -23 -9 -31 0 -6 9 -32 12 -73 10 -36
-2 -73 2 -86 9 -16 8 -25 9 -33 1 -8 -8 -20 -8 -34 -3 -13 5 -37 8 -54 8 -44
-1 -62 18 -24 26 56 11 101 10 116 -2 10 -8 16 -9 19 -2 1 5 32 12 68 15 36 3
115 9 175 15 61 5 209 12 330 15 120 3 224 10 231 16 6 5 19 7 28 3 9 -3 22
-2 29 4 21 17 101 20 113 4 9 -12 26 -13 86 -8 42 4 85 14 95 21 20 15 20 30
15 455 l-2 185 -48 51 c-26 28 -56 69 -67 90 -10 21 -32 58 -48 81 -49 74 -77
145 -77 196 0 61 14 61 79 1z m2829 -23 c10 -6 11 -17 5 -42 -8 -28 -14 -34
-39 -37 -81 -7 -96 -23 -39 -42 19 -6 35 -16 35 -22 0 -12 -40 -64 -40 -52 0
5 -8 -7 -16 -26 -9 -19 -19 -42 -23 -50 -4 -8 -24 -23 -44 -33 -31 -14 -38
-24 -43 -57 -4 -22 -11 -40 -16 -40 -5 0 -7 -9 -3 -19 3 -11 -3 -35 -14 -55
-12 -20 -17 -36 -13 -37 4 -1 -4 -4 -18 -8 -35 -10 -58 7 -82 61 -19 45 -46
66 -68 53 -6 -3 -20 -3 -31 0 -15 5 -18 10 -10 18 6 6 11 19 11 28 0 9 16 29
35 44 20 14 34 32 33 39 -4 19 61 78 110 100 23 10 42 22 42 26 0 4 20 17 44
30 25 12 47 29 50 36 3 8 17 14 31 14 16 0 25 6 25 15 0 15 46 65 59 65 3 0
12 -4 19 -9z m-2582 -106 c1 -8 -2 -17 -7 -21 -5 -3 -9 7 -9 22 0 27 12 26 16
-1z m1108 -130 c26 -20 55 -19 77 1 17 15 20 15 45 -1 15 -10 35 -14 49 -11
16 4 32 -3 56 -24 34 -30 34 -30 9 -31 -47 -2 -85 0 -115 5 -16 4 -57 6 -91 6
-67 -1 -90 14 -79 50 7 24 22 25 49 5z m-1528 -6 c3 -5 0 -9 -7 -9 -7 0 -10
-11 -7 -30 3 -19 0 -30 -7 -30 -14 0 -52 -40 -39 -40 5 0 -1 -8 -13 -18 -22
-16 -22 -19 -7 -47 15 -29 14 -31 -10 -50 -19 -15 -27 -32 -29 -60 -2 -28 -11
-48 -30 -67 -15 -15 -27 -34 -27 -43 0 -8 -8 -15 -19 -15 -14 0 -18 -7 -17
-27 1 -24 -3 -28 -23 -25 -17 2 -34 -7 -53 -28 l-28 -31 -29 20 c-31 22 -61
28 -61 11 0 -5 -4 -10 -10 -10 -5 0 -10 17 -10 38 -1 33 -2 35 -14 20 -18 -24
-29 -23 -21 2 8 26 -19 38 -39 17 -14 -13 -13 -16 7 -21 21 -5 21 -6 2 -20
-13 -10 -42 -15 -80 -15 -33 0 -54 3 -47 6 9 3 2 12 -19 25 -22 13 -35 16 -37
9 -6 -18 -18 -13 -19 8 -1 13 3 18 11 15 19 -7 27 43 10 57 -8 6 -14 18 -14
25 0 18 -19 18 -26 0 -3 -8 -12 -12 -19 -10 -21 9 2 64 27 64 15 0 18 5 13 19
-4 14 2 24 25 37 46 28 38 44 -22 46 -184 6 -187 7 -165 19 9 5 21 8 26 5 5
-3 14 1 21 9 7 8 20 15 30 15 9 0 30 15 47 33 45 47 71 67 91 67 14 0 15 -2 2
-10 -17 -11 -10 -13 14 -4 21 8 20 24 -1 24 -9 0 -14 3 -10 6 16 16 623 29
633 13z m4934 -9 c0 -13 -5 -18 -15 -14 -16 7 -19 17 -8 27 12 13 23 7 23 -13z
m-1975 -35 c-30 -40 -39 -41 -30 -2 6 22 43 51 54 41 2 -2 -9 -20 -24 -39z
m-1490 -15 c-3 -5 -11 -10 -16 -10 -6 0 -7 5 -4 10 3 6 11 10 16 10 6 0 7 -4
4 -10z m3543 -107 c17 -45 24 -108 16 -158 -7 -47 -7 -47 -27 -27 -14 15 -21
38 -25 90 -7 107 12 157 36 95z m-2598 -3 c0 -5 -5 -10 -11 -10 -5 0 -7 5 -4
10 3 6 8 10 11 10 2 0 4 -4 4 -10z m-58 -50 c-3 -29 1 -47 13 -59 28 -32 22
-75 -15 -108 -23 -21 -31 -34 -25 -44 7 -11 11 -8 17 11 6 19 7 15 4 -15 -2
-22 -7 -49 -11 -60 -4 -11 -3 -15 2 -9 12 15 43 25 43 14 0 -6 -7 -10 -15 -10
-8 0 -15 -7 -15 -15 0 -8 4 -15 9 -15 5 0 11 -10 13 -22 2 -13 9 -22 16 -20 7
1 17 -9 21 -22 6 -14 21 -26 38 -31 22 -5 32 -2 49 18 16 19 24 23 33 14 9 -9
14 -8 21 3 5 8 10 10 10 4 0 -5 9 -20 20 -32 48 -52 93 -183 70 -206 -14 -14
-12 -32 6 -50 8 -9 11 -16 5 -16 -6 0 -11 -11 -11 -25 0 -28 -22 -54 -62 -72
-22 -10 -29 -9 -39 3 -7 8 -17 13 -24 11 -6 -3 -21 15 -34 38 -15 28 -28 42
-37 38 -9 -3 -14 2 -14 16 0 11 -11 28 -25 37 -16 10 -25 26 -25 41 0 18 -4
23 -14 20 -9 -4 -16 3 -20 19 -4 14 -11 22 -16 19 -6 -3 -7 1 -4 9 4 10 1 16
-7 16 -23 0 -91 107 -96 151 -3 22 -13 45 -22 52 -21 16 -50 53 -33 43 21 -13
37 5 18 20 -12 8 -15 18 -10 26 5 7 8 22 9 32 0 12 15 27 38 39 21 11 42 29
47 41 14 32 50 73 50 57 0 -8 2 -12 5 -9 3 3 1 18 -5 33 -7 20 -7 31 1 41 19
23 25 16 21 -26z m-3172 20 c0 -5 -7 -10 -15 -10 -8 0 -15 5 -15 10 0 6 7 10
15 10 8 0 15 -4 15 -10z m5760 -20 c0 -5 -2 -10 -4 -10 -3 0 -8 5 -11 10 -3 6
-1 10 4 10 6 0 11 -4 11 -10z m-1520 -252 c0 -11 -17 -10 -41 3 -28 15 -13 31
16 17 14 -6 25 -15 25 -20z m-2840 -38 c0 -5 13 -29 30 -52 29 -43 38 -71 45
-138 1 -19 6 -65 10 -102 8 -72 4 -78 -32 -53 -22 16 -33 53 -58 205 -17 101
-19 150 -5 150 6 0 10 -4 10 -10z m5397 -47 c2 -6 -3 -13 -12 -16 -10 -5 -15
0 -15 14 0 21 21 22 27 2z m-812 -3 c3 -5 1 -10 -4 -10 -6 0 -11 5 -11 10 0 6
2 10 4 10 3 0 8 -4 11 -10z m353 -11 c2 -5 9 -9 17 -9 7 0 18 -7 26 -16 7 -9
21 -13 33 -10 24 6 86 -13 86 -27 0 -5 -7 -6 -15 -3 -9 3 -18 -1 -21 -9 -3 -7
-12 -11 -20 -8 -7 3 -17 -3 -20 -12 -5 -12 -9 -13 -14 -5 -6 10 -14 9 -36 -2
-36 -17 -176 -23 -204 -8 -34 18 -22 52 26 70 22 8 53 25 70 37 28 21 64 22
72 2z m-2468 -97 c0 -23 14 -53 39 -84 11 -14 40 -151 41 -193 0 -16 -67 -9
-96 10 -14 9 -29 27 -34 41 -13 34 -13 151 0 159 8 5 7 11 -1 21 -10 12 -10
15 2 12 10 -2 13 6 11 30 -1 21 2 31 8 27 5 -3 10 2 10 12 0 15 2 16 10 3 5
-8 10 -25 10 -38z m-870 15 c24 -27 90 -136 90 -148 0 -5 17 -17 38 -28 37
-19 112 -103 112 -126 0 -12 -55 -35 -83 -35 -9 0 -17 -5 -17 -10 0 -6 -8 -20
-18 -31 -21 -22 -64 -20 -127 7 -19 8 -46 14 -59 14 -34 0 -46 22 -46 80 0 27
-3 30 -32 30 -18 0 -50 -4 -70 -9 -28 -7 -40 -5 -49 5 -9 11 3 27 55 77 65 61
96 105 96 134 0 21 46 63 70 63 11 0 29 -10 40 -23z m3110 -87 c0 -5 -4 -10
-10 -10 -5 0 -10 5 -10 10 0 6 5 10 10 10 6 0 10 -4 10 -10z m40 -46 c0 -8 -4
-12 -10 -9 -5 3 -10 13 -10 21 0 8 5 12 10 9 6 -3 10 -13 10 -21z m23 -49 c8
-18 -11 -31 -25 -17 -11 11 -3 32 12 32 4 0 10 -7 13 -15z m170 -12 c4 -2 4
-9 1 -15 -11 -17 18 -28 33 -12 16 16 73 19 73 4 0 -5 11 -10 24 -10 21 0 55
-25 45 -34 -12 -10 -73 -25 -81 -20 -5 4 -48 6 -95 5 -110 -2 -127 11 -103 74
9 25 13 26 53 20 23 -4 45 -9 50 -12z m-4664 -61 c25 -15 81 -45 123 -65 42
-20 79 -41 82 -46 6 -9 87 -39 176 -64 53 -16 104 -13 195 8 66 16 116 26 162
34 28 5 70 19 94 30 74 36 101 24 53 -24 -14 -14 -23 -29 -19 -34 3 -5 1 -12
-5 -16 -5 -3 -19 -27 -31 -52 -17 -37 -20 -59 -16 -122 10 -163 40 -264 103
-347 53 -69 32 -69 -166 0 -234 81 -287 104 -318 141 -41 49 -233 212 -373
318 l-124 93 -3 53 c-2 33 -10 64 -22 81 -11 15 -17 30 -13 34 14 14 58 4 102
-22z m-1589 -32 c0 -5 -4 -10 -10 -10 -5 0 -10 5 -10 10 0 6 5 10 10 10 6 0
10 -4 10 -10z m4534 -58 c17 4 23 1 19 -9 -3 -7 1 -13 10 -13 18 0 27 -21 27
-66 0 -19 7 -51 15 -71 8 -19 15 -50 15 -68 0 -18 6 -38 14 -44 18 -15 49
-112 44 -137 -2 -13 -13 -20 -37 -22 -26 -3 -38 3 -61 27 -18 22 -26 39 -23
55 3 13 0 27 -6 30 -6 4 -11 23 -11 42 0 19 -6 49 -14 67 -19 46 -30 147 -17
147 17 0 13 14 -9 38 -24 26 -28 51 -5 32 8 -7 26 -10 39 -8z m-390 -83 c30
-35 32 -45 10 -53 -45 -17 -104 18 -104 61 0 20 5 23 34 23 26 0 41 -7 60 -31z
m-359 -56 c14 -21 15 -30 6 -46 -10 -15 -9 -23 3 -42 20 -31 21 -75 1 -75 -8
0 -24 18 -35 39 -19 37 -19 41 -3 57 16 16 16 18 -6 35 -16 13 -21 25 -16 39
9 28 29 25 50 -7z m145 -43 c0 -5 -9 -10 -21 -10 -11 0 -17 5 -14 10 3 6 13
10 21 10 8 0 14 -4 14 -10z m1176 -111 c-3 -17 -6 -47 -6 -66 0 -25 -8 -43
-30 -64 -16 -16 -27 -36 -24 -43 9 -23 -24 -48 -47 -36 -29 16 -23 42 31 137
28 48 50 91 50 95 0 4 7 8 16 8 13 0 15 -7 10 -31z m-1209 -39 c6 -23 7 -43 2
-46 -5 -3 -7 -9 -4 -14 3 -5 0 -12 -6 -16 -6 -3 -15 0 -20 7 -4 7 -11 10 -14
7 -4 -4 7 -20 24 -37 17 -17 31 -36 31 -44 0 -7 14 -35 30 -61 29 -45 31 -66
8 -66 -16 0 -58 41 -58 56 0 7 -9 16 -20 19 -11 3 -23 17 -26 29 -3 13 -19 33
-35 45 -16 12 -29 30 -29 39 0 10 -5 23 -12 30 -10 10 -7 17 10 34 l22 22 28
-27 c15 -15 31 -27 36 -27 4 0 4 20 0 45 -8 59 17 63 33 5z m-270 0 c14 -21 7
-54 -9 -44 -5 3 -28 8 -51 10 -39 4 -64 21 -49 36 4 3 23 8 42 11 19 2 40 5
45 5 6 1 16 -7 22 -18z m7 -69 c4 -5 0 -11 -6 -14 -9 -3 -6 -10 8 -21 12 -8
29 -35 39 -58 18 -46 30 -58 58 -58 26 0 82 -61 66 -71 -9 -5 -10 -11 -2 -21
36 -46 58 -106 58 -160 0 -55 2 -59 39 -90 81 -69 103 -97 110 -138 7 -47 20
-71 59 -119 45 -53 50 -77 24 -108 -39 -46 -61 -64 -73 -59 -7 3 -15 2 -18 -2
-7 -7 -25 -8 -197 -16 -64 -3 -132 -1 -150 4 -19 5 -59 11 -90 14 -76 7 -141
22 -192 45 -23 11 -51 21 -61 23 -28 4 -31 27 -5 36 l23 9 -22 5 c-31 9 -27
25 8 33 17 4 30 13 30 22 0 18 -50 73 -67 73 -7 0 -13 9 -13 20 0 11 -6 23
-13 26 -7 2 -13 22 -13 48 -1 40 1 44 42 66 24 12 44 26 44 30 0 4 11 5 25 2
14 -2 25 -9 25 -14 0 -5 8 -7 18 -4 10 4 29 -4 47 -20 20 -17 36 -23 52 -19
14 3 42 -4 73 -20 27 -14 52 -24 54 -23 2 2 15 -7 28 -19 16 -15 41 -24 71
-27 l47 -5 0 45 c0 24 -4 44 -8 44 -5 0 -19 14 -31 31 l-23 31 21 22 c26 28
23 31 -70 75 -64 31 -98 68 -83 92 3 6 0 17 -7 25 -7 8 -12 30 -11 49 1 19 -3
37 -8 40 -6 3 -10 13 -10 21 0 8 5 12 10 9 6 -3 10 0 10 9 0 8 -6 16 -12 18
-10 4 -10 10 0 32 6 15 12 39 12 55 0 15 3 31 7 34 10 10 71 8 77 -2z m1271
-97 c55 -36 59 -42 70 -106 8 -44 36 -71 90 -88 66 -20 106 -41 112 -58 26
-80 50 -112 100 -138 29 -15 50 -31 47 -35 -3 -5 6 -14 20 -20 14 -7 33 -23
41 -36 9 -12 25 -23 38 -23 31 0 72 -23 73 -40 0 -8 5 -23 9 -33 5 -12 2 -32
-9 -53 -21 -45 -20 -71 3 -117 10 -20 21 -45 24 -57 8 -32 -26 -25 -67 14 -20
18 -37 28 -37 22 -1 -6 -5 11 -10 38 -4 27 -16 61 -26 75 -16 22 -18 35 -11
80 5 30 6 56 3 59 -20 21 -327 44 -355 27 -4 -2 -29 -7 -56 -10 -63 -7 -111
-30 -119 -56 -7 -22 21 -99 37 -99 4 0 8 -9 8 -19 0 -21 36 -111 45 -111 11 0
1 79 -12 84 -7 3 -13 17 -13 31 0 14 -4 25 -10 25 -5 0 -10 7 -10 15 0 24 20
17 30 -11 6 -14 14 -23 19 -20 5 3 12 -9 15 -28 4 -18 15 -41 26 -51 19 -18
20 -17 20 3 0 14 7 22 18 23 9 1 24 2 32 3 8 2 27 3 43 4 17 1 27 8 27 17 0
22 16 18 37 -9 16 -20 20 -21 33 -8 12 13 15 13 28 -6 8 -12 21 -22 29 -22 10
0 13 -9 11 -26 -2 -21 -12 -29 -45 -40 -23 -8 -60 -15 -83 -17 -23 -2 -45 -9
-50 -16 -4 -8 -17 -12 -28 -9 -12 4 -26 -2 -36 -14 -11 -12 -24 -17 -36 -13
-13 4 -20 0 -25 -15 -4 -12 -15 -20 -29 -20 -13 0 -29 -7 -36 -15 -7 -9 -20
-13 -28 -10 -8 3 -24 -4 -35 -16 -14 -15 -22 -18 -30 -10 -8 8 -17 5 -34 -11
-14 -13 -27 -18 -32 -12 -13 13 -71 190 -71 215 0 17 5 20 25 17 14 -3 25 -3
25 0 0 13 -38 31 -67 32 -17 0 -44 5 -59 10 -39 15 -122 82 -130 105 -4 11
-17 32 -28 46 -12 14 -40 62 -62 105 -39 77 -40 81 -35 154 l6 75 75 1 c87 1
190 13 205 24 13 10 56 14 75 7 45 -16 48 -16 54 15 3 17 6 63 6 103 0 64 2
73 23 83 19 10 45 17 70 21 5 0 33 -15 62 -35z m-237 -103 c9 -25 8 -29 -4
-24 -8 3 -14 16 -14 29 0 32 6 30 18 -5z m1810 -318 c-10 -2 -26 -2 -35 0 -10
3 -2 5 17 5 19 0 27 -2 18 -5z m-1498 -208 c0 -8 -2 -15 -4 -15 -2 0 -6 7 -10
15 -3 8 -1 15 4 15 6 0 10 -7 10 -15z m20 -45 c0 -5 7 -10 15 -10 8 0 15 -4
15 -10 0 -18 -29 -11 -40 10 -7 14 -7 20 0 20 5 0 10 -4 10 -10z m-720 -111
c-66 -57 -101 -82 -107 -75 -9 8 9 26 72 70 62 43 82 46 35 5z m1005 21 c3 -5
1 -10 -4 -10 -6 0 -11 5 -11 10 0 6 2 10 4 10 3 0 8 -4 11 -10z m-895 -23 c0
-13 -44 -53 -96 -87 -12 -8 -36 -25 -53 -38 -29 -22 -31 -22 -31 -4 0 12 29
41 83 80 86 65 97 70 97 49z m-1252 -44 c-8 -10 -17 -25 -20 -33 -3 -9 -7 -4
-10 13 -6 33 18 65 35 48 7 -7 6 -16 -5 -28z m1342 15 c0 -7 -18 -24 -39 -37
-21 -13 -51 -35 -67 -50 -44 -40 -101 -81 -113 -81 -6 0 -11 6 -11 14 0 15 50
56 69 56 6 0 11 5 11 10 0 6 5 10 10 10 12 0 20 5 75 54 41 37 65 45 65 24z
m80 -37 c-6 -12 -15 -19 -20 -16 -5 3 -15 -3 -22 -15 -7 -11 -18 -20 -25 -20
-7 0 -16 -6 -20 -13 -10 -17 -152 -127 -163 -127 -5 0 -12 5 -16 11 -6 10 40
59 57 59 7 0 70 48 112 85 9 8 20 15 23 15 3 0 19 14 36 31 34 33 58 27 38
-10z m-2107 -42 c21 -38 24 -78 4 -57 -7 7 -16 22 -19 33 -3 11 -9 28 -13 38
-12 29 9 19 28 -14z m2161 22 c13 -20 -10 -44 -123 -132 -64 -51 -122 -96
-129 -102 -17 -13 -35 4 -27 26 4 8 48 46 98 83 50 37 106 82 124 101 35 34
48 40 57 24z m-1501 -63 c-5 -50 -22 -90 -35 -82 -17 11 13 124 33 124 4 0 5
-19 2 -42z m1551 13 c9 -13 -14 -71 -28 -71 -10 0 -47 -28 -137 -103 -14 -12
-32 -26 -41 -32 -8 -5 -27 -18 -41 -28 -27 -19 -47 -16 -47 8 0 16 49 65 66
65 5 0 23 14 40 31 16 17 43 39 61 50 18 11 48 36 67 55 34 34 50 41 60 25z
m-5224 -41 c0 -5 -10 -10 -22 -10 -19 0 -20 2 -8 10 19 13 30 13 30 0z m4681
-112 c6 -32 16 -58 21 -58 5 0 26 -16 46 -36 20 -20 48 -42 62 -49 14 -7 62
-53 107 -102 107 -115 106 -114 120 -146 7 -15 17 -27 22 -27 5 0 12 -12 16
-27 3 -16 13 -35 21 -44 8 -9 18 -46 22 -82 7 -55 13 -70 35 -87 15 -12 45
-58 67 -104 39 -80 83 -196 75 -196 -4 0 14 -46 54 -133 30 -66 35 -97 21
-148 -7 -24 -12 -72 -12 -107 1 -42 -7 -89 -23 -138 -14 -42 -27 -96 -31 -122
-3 -26 -13 -60 -22 -75 -15 -25 -21 -27 -54 -22 -36 6 -118 -15 -143 -37 -17
-15 -74 -8 -109 15 -43 27 -65 82 -47 116 7 11 16 21 21 21 12 0 0 63 -14 72
-24 16 -81 8 -109 -16 -17 -15 -35 -22 -47 -19 -31 8 -78 100 -78 152 -1 29
-8 54 -21 72 -12 16 -21 32 -21 36 0 4 -7 21 -15 37 -9 16 -13 36 -11 43 3 7
2 13 -2 13 -9 0 -33 56 -37 84 -1 11 -7 22 -13 24 -7 2 -12 10 -12 18 0 14 -3
22 -33 79 -8 17 -22 55 -32 87 -9 31 -22 61 -30 68 -7 6 -19 33 -25 60 -7 31
-20 54 -34 64 -13 8 -30 35 -40 60 -11 29 -24 46 -34 46 -9 0 -28 9 -42 20
-22 17 -25 25 -22 79 1 45 -2 66 -15 80 -12 15 -20 17 -29 10 -9 -7 -19 -4
-33 10 -25 25 -26 43 -7 74 8 12 18 43 21 69 4 26 15 54 26 64 10 9 19 14 19
9 0 -4 12 10 26 31 51 75 72 87 147 90 37 1 74 8 82 14 8 6 19 9 24 6 16 -10
41 35 35 63 -6 25 -6 25 9 6 8 -10 13 -24 10 -30 -2 -7 3 -18 12 -25 25 -21
35 5 29 73 -10 112 22 88 47 -35z m589 80 c0 -13 -4 -28 -8 -34 -11 -17 -260
-204 -272 -204 -5 0 -10 11 -10 23 0 25 29 55 95 98 22 15 67 52 100 82 65 61
95 72 95 35z m40 -67 c0 -19 -8 -34 -24 -44 -13 -9 -72 -55 -130 -102 -108
-87 -136 -100 -136 -66 0 24 13 38 104 106 39 30 91 72 116 94 54 48 70 51 70
12z m38 -64 c4 -19 -16 -39 -111 -110 -38 -29 -89 -67 -113 -86 -29 -22 -49
-30 -55 -24 -18 18 2 41 94 107 51 35 108 81 127 100 35 37 53 41 58 13z m42
-66 c0 -21 -44 -61 -66 -61 -7 0 -42 -27 -77 -60 -36 -33 -70 -60 -76 -60 -6
0 -11 -6 -11 -14 0 -15 -27 -29 -40 -21 -20 13 7 45 68 80 37 22 92 65 122 97
57 60 80 71 80 39z m30 -60 c0 -17 -27 -37 -37 -27 -7 7 17 46 27 46 6 0 10
-9 10 -19z m-1362 -5 c2 -3 -3 -16 -12 -28 -9 -13 -35 -50 -59 -82 -29 -41
-67 -76 -124 -115 -45 -31 -88 -66 -95 -79 -11 -22 -13 -22 -25 -6 -7 10 -13
25 -13 34 0 9 -14 38 -32 66 -35 53 -35 60 -11 119 26 61 51 89 86 97 35 7
277 2 285 -6z m1192 -140 c0 -15 -63 -67 -77 -64 -15 3 -13 9 16 36 28 27 61
42 61 28z m329 -78 c12 -32 -1 -60 -38 -80 -17 -10 -31 -15 -31 -13 0 5 -33
-20 -64 -50 -48 -46 -116 -81 -116 -59 0 15 22 44 34 44 7 0 23 11 36 25 13
14 29 25 36 25 7 0 19 10 25 23 21 40 80 107 95 107 8 0 18 -10 23 -22z
m-1397 -133 c-16 -35 -32 -31 -32 8 0 42 9 52 29 33 12 -12 12 -20 3 -41z
m1454 -166 c2 -59 -14 -109 -36 -109 -17 0 -20 7 -20 40 0 85 53 150 56 69z
m-78 -36 c-2 -27 -8 -39 -20 -41 -20 -4 -23 14 -8 52 14 39 32 32 28 -11z
m1679 -475 c-3 -8 -6 -5 -6 6 -1 11 2 17 5 13 3 -3 4 -12 1 -19z m108 -18 c-3
-5 -12 -7 -20 -3 -21 7 -19 13 6 13 11 0 18 -4 14 -10z m-338 -52 c-3 -8 -6
-5 -6 6 -1 11 2 17 5 13 3 -3 4 -12 1 -19z m-923 -913 c-7 -16 -24 -21 -24 -6
0 8 7 13 27 20 1 1 0 -6 -3 -14z m-11 -74 c4 -17 2 -18 -14 -8 -22 14 -25 27
-5 27 7 0 16 -9 19 -19z m-19 -36 c-4 -8 -8 -15 -10 -15 -2 0 -4 7 -4 15 0 8
4 15 10 15 5 0 7 -7 4 -15z"/>
<path d="M3917 7939 c-10 -6 -28 -9 -40 -8 -34 4 -69 -19 -59 -38 6 -10 4 -25
-6 -43 -21 -37 -10 -80 23 -80 30 0 39 -14 20 -30 -8 -7 -15 -19 -15 -26 0
-11 26 -14 128 -13 72 1 139 -3 155 -10 33 -13 74 -14 81 -3 7 12 -47 72 -66
72 -9 0 -20 5 -23 10 -4 6 -12 10 -18 9 -7 -1 -20 1 -29 5 -9 4 -44 6 -78 4
-59 -3 -86 8 -32 14 21 2 27 8 25 24 -2 19 7 22 102 38 103 17 106 17 150 -3
40 -18 47 -18 52 -5 7 20 0 26 -71 63 -64 34 -82 37 -109 17 -15 -12 -26 -12
-70 0 -62 16 -95 17 -120 3z m93 -169 c0 -5 -4 -10 -10 -10 -5 0 -10 5 -10 10
0 6 5 10 10 10 6 0 10 -4 10 -10z"/>
<path d="M3227 7923 c-3 -2 -33 -6 -68 -8 -103 -8 -143 -16 -164 -35 -11 -10
-39 -28 -62 -40 -24 -12 -43 -26 -43 -30 0 -4 -16 -27 -35 -51 -59 -70 -38
-86 73 -57 53 13 67 2 76 -57 4 -21 14 -46 24 -55 20 -18 90 -25 112 -10 8 5
11 10 6 10 -6 0 -1 7 10 15 11 8 14 15 7 15 -24 0 -13 18 15 23 79 16 97 24
100 42 2 11 10 25 19 32 13 10 12 13 -7 23 -29 16 -63 4 -55 -20 5 -15 2 -17
-15 -13 -13 3 -19 11 -16 19 4 10 -3 14 -24 14 -17 0 -30 5 -30 11 0 12 -40 8
-72 -6 -14 -6 -18 -2 -18 17 0 42 20 57 88 64 67 6 116 -6 126 -32 3 -8 15
-14 26 -14 11 0 37 -9 57 -20 21 -11 43 -20 50 -20 6 0 21 -14 33 -30 17 -24
21 -39 15 -66 l-6 -36 33 7 c63 13 85 76 43 125 -7 8 -16 26 -20 40 -9 31 -34
60 -52 60 -12 0 -15 6 -17 40 -2 28 -66 50 -138 49 -37 -1 -69 -3 -71 -6z"/>
<path d="M3330 7712 c0 -21 28 -40 63 -44 45 -5 52 17 7 27 -16 4 -32 11 -35
16 -7 11 -35 12 -35 1z"/>
<path d="M3839 7331 l-24 -20 25 -9 c46 -17 89 10 55 35 -24 17 -28 17 -56 -6z"/>
<path d="M3609 7319 c-32 -32 -8 -49 69 -51 90 -2 103 18 34 55 -45 23 -77 22
-103 -4z"/>
<path d="M3497 7283 c-23 -22 18 -73 58 -73 27 0 34 17 10 26 -8 4 -15 12 -15
20 0 7 -9 18 -19 24 -23 12 -26 12 -34 3z"/>
<path d="M5652 6816 c-16 -19 5 -53 39 -65 37 -13 89 -15 89 -3 0 18 -33 52
-50 52 -10 0 -21 4 -24 9 -9 15 -45 20 -54 7z"/>
<path d="M6734 6571 c-10 -11 -2 -40 21 -71 17 -23 25 -28 25 -17 0 9 7 17 15
17 8 0 15 9 15 19 0 11 3 26 6 34 4 11 -5 16 -36 19 -23 2 -43 2 -46 -1z"/>
<path d="M7118 6493 c-24 -6 -23 -40 2 -53 16 -9 22 -6 34 19 20 38 11 47 -36
34z"/>
<path d="M6763 6313 c-8 -15 -8 -21 -1 -17 7 5 9 -2 4 -20 -7 -30 0 -33 32
-10 28 20 28 46 -1 60 -20 9 -25 7 -34 -13z"/>
<path d="M1573 6654 c-8 -22 10 -31 54 -25 l38 5 -40 7 c-22 3 -32 7 -22 8 24
2 21 21 -3 21 -11 0 -23 -7 -27 -16z"/>
<path d="M4541 6764 c0 -11 3 -14 6 -6 3 7 2 16 -1 19 -3 4 -6 -2 -5 -13z"/>
<path d="M4344 6288 c7 -38 20 -53 35 -44 16 10 13 42 -5 60 -25 26 -37 19
-30 -16z"/>
<path d="M6305 4910 c3 -5 8 -10 11 -10 2 0 4 5 4 10 0 6 -5 10 -11 10 -5 0
-7 -4 -4 -10z"/>
<path d="M6250 4861 c0 -6 4 -13 10 -16 6 -3 7 1 4 9 -7 18 -14 21 -14 7z"/>
<path d="M6340 4827 c0 -14 5 -29 10 -32 7 -4 8 3 4 22 -9 38 -14 42 -14 10z"/>
<path d="M9016 8533 c-3 -16 -19 -111 -36 -213 -17 -102 -33 -197 -36 -212 -5
-26 -3 -28 24 -28 35 0 33 -5 72 230 12 68 23 126 25 128 2 3 18 -27 35 -64
92 -207 127 -278 135 -281 6 -1 46 76 90 173 59 133 81 172 86 158 7 -16 59
-318 59 -338 0 -3 14 -6 30 -6 22 0 30 5 29 18 0 9 -17 116 -37 237 l-38 220
-30 3 c-29 3 -30 2 -108 -173 -48 -108 -82 -171 -86 -163 -4 7 -40 86 -80 176
-69 153 -74 162 -101 162 -22 0 -29 -5 -33 -27z"/>
<path d="M9732 8448 c-110 -24 -172 -156 -123 -263 49 -110 192 -146 292 -74
l29 20 0 -25 c0 -21 5 -26 25 -26 l25 0 0 186 0 185 -22 -3 c-15 -2 -24 -11
-26 -25 -4 -28 -3 -28 -48 2 -20 14 -47 25 -60 25 -12 0 -28 2 -36 4 -7 2 -32
0 -56 -6z m113 -62 c95 -40 99 -192 6 -241 -120 -62 -247 65 -183 184 34 63
107 86 177 57z"/>
<path d="M10472 8448 c-110 -24 -172 -156 -123 -263 40 -90 141 -134 232 -103
42 14 78 41 101 76 42 64 -4 72 -68 12 -37 -34 -50 -40 -87 -40 -121 0 -181
144 -96 229 32 32 83 47 124 37 14 -4 43 -22 64 -41 21 -19 48 -35 60 -35 24
0 25 3 10 33 -41 80 -124 116 -217 95z"/>
<path d="M10909 8450 c-124 -22 -190 -161 -131 -277 88 -172 362 -107 362 85
0 62 -13 98 -48 135 -48 51 -110 70 -183 57z m108 -70 c45 -27 65 -62 65 -114
0 -82 -55 -136 -137 -136 -104 0 -166 119 -109 208 22 34 74 62 114 62 19 0
49 -9 67 -20z"/>
<path d="M11300 8450 c-48 -12 -90 -61 -90 -106 0 -52 32 -78 121 -99 104 -23
132 -52 89 -95 -15 -15 -33 -20 -70 -20 -49 0 -90 23 -90 50 0 6 -14 10 -31
10 -27 0 -30 -3 -23 -22 13 -42 35 -66 75 -82 52 -21 95 -20 146 3 47 22 65
48 65 96 0 67 -27 90 -131 112 -36 7 -70 18 -78 24 -19 17 -16 57 6 69 47 25
141 1 141 -36 0 -9 11 -14 30 -14 35 0 35 0 16 45 -22 53 -101 82 -176 65z"/>
<path d="M10100 8265 l0 -185 30 0 30 0 0 121 c0 156 13 181 98 194 37 5 42 9
42 32 0 25 -2 25 -46 20 -25 -2 -59 -14 -74 -25 -30 -22 -40 -20 -40 10 0 11
-7 18 -20 18 -19 0 -20 -7 -20 -185z"/>
<path d="M10160 7534 c0 -47 -3 -84 -7 -82 -85 44 -166 53 -221 24 -128 -66
-135 -266 -12 -335 71 -39 156 -36 213 9 l25 20 6 -25 c4 -16 13 -25 26 -25
19 0 20 7 20 250 l0 250 -25 0 c-25 0 -25 -1 -25 -86z m-71 -112 c120 -65 74
-252 -62 -252 -78 0 -137 58 -137 135 0 103 107 166 199 117z"/>
<path d="M10590 7585 c0 -32 2 -35 30 -35 28 0 30 3 30 35 0 32 -2 35 -30 35
-28 0 -30 -3 -30 -35z"/>
<path d="M8977 7593 c-4 -3 -7 -111 -7 -240 l0 -233 30 0 29 0 3 93 3 92 55 0
55 0 53 -92 c52 -89 55 -93 89 -93 34 0 35 1 21 23 -63 96 -100 171 -88 175 7
3 29 19 48 37 29 26 35 40 39 81 6 67 -19 112 -77 142 -37 18 -60 22 -145 22
-56 0 -105 -3 -108 -7z m244 -82 c37 -37 39 -82 5 -116 -28 -27 -70 -38 -141
-33 l-50 3 -3 88 -3 87 81 0 c77 0 83 -2 111 -29z"/>
<path d="M9517 7486 c-195 -53 -173 -341 28 -372 149 -22 267 126 210 263 -20
48 -41 71 -85 93 -51 25 -99 30 -153 16z m118 -60 c91 -38 99 -183 13 -236
-92 -56 -208 9 -208 115 0 101 98 161 195 121z"/>
<path d="M10884 7490 c-116 -27 -175 -147 -125 -255 22 -49 48 -73 98 -91 56
-19 94 -17 146 10 l47 23 0 -29 c0 -56 -30 -92 -94 -112 -28 -9 -95 13 -123
40 -21 21 -73 34 -73 18 0 -4 9 -21 19 -38 27 -42 71 -66 135 -73 70 -7 135
22 168 75 22 35 23 49 26 235 3 194 3 197 -17 197 -16 0 -21 -6 -21 -25 0 -30
-4 -31 -39 -6 -24 17 -45 25 -101 36 -8 1 -29 -1 -46 -5z m101 -64 c84 -35 87
-178 5 -221 -62 -32 -146 -11 -175 45 -24 46 -19 103 12 140 42 51 94 62 158
36z"/>
<path d="M11795 7493 c-11 -2 -30 -6 -42 -8 -34 -8 -84 -55 -104 -100 -62
-136 51 -293 195 -271 52 9 111 47 131 86 l16 30 -30 0 c-15 0 -34 -7 -42 -16
-53 -64 -175 -55 -215 18 -27 47 -24 48 141 48 l155 0 0 37 c0 57 -35 120 -83
147 -44 25 -89 35 -122 29z m84 -67 c31 -16 61 -56 61 -81 0 -13 -19 -15 -119
-15 -69 0 -122 4 -126 10 -10 16 27 68 59 84 39 20 89 20 125 2z"/>
<path d="M10330 7305 l0 -185 30 0 30 0 0 121 c0 156 13 181 98 194 37 5 42 9
42 32 0 25 -2 25 -46 20 -25 -2 -59 -14 -74 -25 -30 -22 -40 -20 -40 10 0 11
-7 18 -20 18 -19 0 -20 -7 -20 -185z"/>
<path d="M10590 7305 l0 -185 30 0 30 0 0 185 0 185 -30 0 -30 0 0 -185z"/>
<path d="M11222 7351 c3 -152 9 -168 72 -215 39 -30 143 -30 182 0 63 47 69
63 72 215 l4 139 -31 0 -31 0 0 -120 c0 -163 -20 -200 -105 -200 -85 0 -105
37 -105 200 l0 120 -31 0 -31 0 4 -139z"/>
<path d="M12062 7463 c3 -28 4 -28 90 -33 l87 -5 -95 -148 c-52 -81 -94 -149
-94 -152 0 -3 65 -5 145 -5 l145 0 0 25 c0 25 0 25 -95 25 -52 0 -95 4 -95 8
0 5 38 68 84 140 47 72 90 140 96 151 11 21 9 21 -130 21 l-141 0 3 -27z"/>
<path d="M12410 7155 c0 -24 5 -35 15 -35 20 0 19 -29 -1 -51 -27 -30 -11 -44
19 -18 23 19 29 35 34 82 l6 57 -37 0 c-35 0 -36 -1 -36 -35z"/>
<path d="M11950 6585 c0 -47 -2 -85 -4 -85 -3 0 -21 9 -40 21 -40 23 -113 28
-168 10 -95 -31 -144 -158 -99 -256 47 -104 170 -142 269 -84 42 24 52 24 52
-1 0 -15 7 -20 25 -20 l25 0 0 250 0 250 -30 0 -30 0 0 -85z m-75 -109 c95
-40 99 -192 6 -241 -120 -62 -247 65 -183 184 34 63 107 86 177 57z"/>
<path d="M12730 6420 l0 -250 30 0 30 0 0 250 0 250 -30 0 -30 0 0 -250z"/>
<path d="M9105 6543 c-11 -2 -30 -6 -42 -8 -34 -8 -84 -55 -104 -100 -62 -136
51 -293 195 -271 52 9 111 47 131 86 l16 30 -30 0 c-15 0 -34 -7 -42 -16 -53
-64 -175 -55 -215 18 -27 47 -24 48 141 48 l155 0 0 37 c0 57 -35 120 -83 147
-44 25 -89 35 -122 29z m84 -67 c31 -16 61 -56 61 -81 0 -13 -19 -15 -119 -15
-69 0 -122 4 -126 10 -10 16 27 68 59 84 39 20 89 20 125 2z"/>
<path d="M9475 6541 c-50 -12 -76 -31 -90 -65 -30 -72 10 -119 120 -142 38 -8
74 -19 82 -25 19 -16 16 -53 -5 -72 -38 -34 -152 -13 -152 29 0 9 -11 14 -31
14 -29 0 -31 -2 -24 -27 15 -64 88 -101 174 -88 58 9 111 58 111 104 0 71 -35
100 -144 120 -65 12 -86 25 -86 51 0 50 110 71 150 28 11 -12 20 -25 20 -30 0
-4 11 -8 25 -8 18 0 25 5 25 19 0 23 -44 78 -68 85 -40 11 -79 14 -107 7z"/>
<path d="M9903 6540 c-17 -4 -48 -17 -67 -28 l-36 -21 -6 24 c-4 16 -13 25
-25 25 -18 0 -19 -11 -19 -250 l0 -250 30 0 30 0 0 85 0 84 37 -22 c48 -28
133 -29 186 -3 22 11 51 37 65 59 23 34 27 51 27 112 0 60 -4 77 -25 108 -42
61 -126 94 -197 77z m97 -65 c49 -25 70 -61 70 -121 0 -47 -4 -59 -33 -90 -83
-91 -230 -33 -230 92 0 99 106 164 193 119z"/>
<path d="M10349 6540 c-124 -22 -190 -161 -131 -277 88 -172 362 -107 362 85
0 62 -13 98 -48 135 -48 51 -110 70 -183 57z m108 -70 c45 -27 65 -62 65 -114
0 -82 -55 -136 -137 -136 -104 0 -166 119 -109 208 22 34 74 62 114 62 19 0
49 -9 67 -20z"/>
<path d="M10745 6541 c-69 -17 -95 -45 -95 -103 0 -63 31 -86 142 -108 81 -16
107 -59 60 -97 -38 -31 -152 -6 -152 33 0 9 -11 14 -30 14 -34 0 -36 -8 -14
-51 16 -33 81 -68 124 -69 89 0 150 47 150 117 0 63 -27 87 -124 108 -103 23
-126 45 -86 85 14 14 33 20 65 20 44 0 85 -24 85 -50 0 -5 11 -10 25 -10 29 0
32 17 10 59 -21 42 -99 67 -160 52z"/>
<path d="M11149 6540 c-154 -29 -210 -211 -100 -321 74 -74 187 -77 268 -6 43
38 63 81 63 137 0 125 -107 214 -231 190z m96 -64 c64 -27 95 -121 62 -186
-19 -38 -74 -70 -121 -70 -104 0 -167 107 -118 199 34 63 107 86 177 57z"/>
<path d="M12245 6540 c-92 -21 -146 -90 -146 -185 0 -137 123 -227 246 -181
41 16 105 75 105 96 0 16 -58 12 -67 -4 -13 -23 -65 -46 -104 -46 -46 0 -99
35 -116 78 l-13 32 161 0 161 0 -7 47 c-9 60 -26 94 -65 127 -41 34 -103 49
-155 36z m125 -86 c16 -16 30 -38 32 -49 3 -19 -3 -20 -119 -23 -107 -2 -123
-1 -123 13 0 86 144 126 210 59z"/>
<path d="M13017 6536 c-81 -22 -136 -95 -137 -184 -1 -150 171 -241 295 -156
44 30 45 30 45 -1 0 -20 5 -25 25 -25 l25 0 0 185 0 185 -25 0 c-20 0 -25 -5
-25 -25 0 -28 -12 -32 -30 -11 -11 15 -49 29 -100 39 -14 3 -47 -1 -73 -7z
m122 -64 c120 -65 74 -252 -62 -252 -78 0 -137 58 -137 135 0 103 107 166 199
117z"/>
<path d="M14187 6536 c-81 -22 -136 -95 -137 -184 -1 -150 171 -241 295 -156
44 30 45 30 45 -1 0 -20 5 -25 25 -25 l25 0 0 185 0 185 -25 0 c-20 0 -25 -5
-25 -25 0 -28 -12 -32 -30 -11 -11 15 -49 29 -100 39 -14 3 -47 -1 -73 -7z
m122 -64 c120 -65 74 -252 -62 -252 -78 0 -137 58 -137 135 0 103 107 166 199
117z"/>
<path d="M13380 6407 c0 -156 11 -188 80 -224 55 -29 104 -29 160 0 69 35 80
66 80 224 l0 133 -25 0 -25 0 0 -102 c0 -57 -5 -120 -10 -140 -30 -108 -175
-103 -200 7 -5 22 -10 84 -10 138 0 97 0 97 -25 97 l-25 0 0 -133z"/>
<path d="M13820 6355 l0 -185 25 0 25 0 0 103 c0 164 17 197 108 212 36 6 42
10 42 31 0 21 -4 24 -39 24 -24 0 -51 -9 -75 -25 -20 -14 -39 -25 -41 -25 -3
0 -5 11 -5 25 0 18 -5 25 -20 25 -19 0 -20 -7 -20 -185z"/>
<path d="M9617 5719 c-22 -13 -47 -68 -47 -104 0 -22 -4 -25 -35 -25 -31 0
-35 -3 -35 -25 0 -22 4 -25 35 -25 l35 0 0 -160 0 -160 30 0 30 0 0 160 0 160
55 0 c52 0 55 1 55 25 0 24 -3 25 -55 25 -54 0 -55 1 -55 28 0 42 21 63 68 69
32 4 42 10 42 24 0 16 -8 19 -52 19 -29 0 -61 -5 -71 -11z"/>
<path d="M10980 5635 c0 -47 -2 -85 -4 -85 -3 0 -21 9 -40 21 -40 23 -113 28
-168 10 -95 -31 -144 -158 -99 -256 47 -104 170 -142 269 -84 42 24 52 24 52
-1 0 -15 7 -20 25 -20 l25 0 0 250 0 250 -30 0 -30 0 0 -85z m-75 -109 c95
-40 99 -192 6 -241 -120 -62 -247 65 -183 184 34 63 107 86 177 57z"/>
<path d="M11930 5634 c0 -47 -3 -84 -7 -82 -85 44 -166 53 -221 24 -128 -66
-135 -266 -12 -335 71 -39 156 -36 213 9 l25 20 6 -25 c4 -16 13 -25 26 -25
19 0 20 7 20 250 l0 250 -25 0 c-25 0 -25 -1 -25 -86z m-71 -112 c120 -65 74
-252 -62 -252 -78 0 -137 58 -137 135 0 103 107 166 199 117z"/>
<path d="M13290 5635 c0 -47 -2 -85 -4 -85 -3 0 -21 10 -41 21 -51 30 -129 29
-186 -2 -105 -58 -126 -214 -40 -300 69 -69 169 -76 254 -17 l27 19 0 -25 c0
-21 5 -26 25 -26 l25 0 0 250 0 250 -30 0 -30 0 0 -85z m-75 -109 c46 -20 75
-69 75 -129 0 -40 -5 -53 -33 -83 -28 -31 -42 -37 -84 -41 -69 -7 -115 20
-139 82 -25 67 -4 127 59 165 38 24 75 25 122 6z"/>
<path d="M13900 5470 l0 -250 25 0 25 0 0 250 0 250 -25 0 -25 0 0 -250z"/>
<path d="M10384 5588 c-22 -5 -50 -17 -62 -28 -27 -25 -29 -25 -36 5 -4 16
-13 25 -26 25 -19 0 -20 -7 -20 -185 l0 -185 29 0 29 0 4 131 3 131 33 29 c42
38 98 40 139 5 28 -24 28 -25 31 -160 l4 -136 30 0 30 0 -4 138 c-2 112 -6
143 -22 168 -33 55 -92 78 -162 62z"/>
<path d="M11273 5590 c-106 -25 -165 -122 -141 -233 27 -127 178 -185 290
-112 l37 24 3 -22 c2 -14 11 -23 26 -25 l22 -3 0 185 c0 179 -1 186 -20 186
-12 0 -22 -9 -26 -24 l-6 -24 -41 23 c-50 27 -100 36 -144 25z m118 -73 c43
-29 59 -60 59 -120 0 -137 -190 -176 -251 -51 -59 123 80 247 192 171z"/>
<path d="M12229 5590 c-154 -29 -210 -211 -100 -321 74 -74 187 -77 268 -6 43
38 63 81 63 137 0 125 -107 214 -231 190z m96 -64 c64 -27 95 -121 62 -186
-19 -38 -74 -70 -121 -70 -104 0 -167 107 -118 199 34 63 107 86 177 57z"/>
<path d="M13605 5595 c-5 -2 -22 -6 -37 -9 -37 -8 -98 -63 -114 -103 -35 -82
-3 -193 68 -241 79 -52 202 -29 254 47 l24 36 -31 3 c-22 2 -35 -2 -41 -12
-24 -43 -114 -59 -168 -31 -28 14 -60 60 -60 85 0 6 53 10 155 10 l155 0 0 30
c0 62 -46 137 -100 165 -27 13 -89 25 -105 20z m89 -74 c30 -20 55 -55 56 -78
0 -10 -31 -13 -125 -13 -81 0 -125 4 -125 10 0 24 32 70 58 84 38 21 101 20
136 -3z"/>
<path d="M8967 5493 c25 -54 61 -131 80 -172 l35 -74 -18 -39 c-22 -48 -48
-68 -91 -68 -29 0 -33 -3 -33 -25 0 -23 4 -25 45 -25 76 0 100 32 215 280 90
195 97 215 79 218 -11 2 -26 2 -32 -1 -7 -3 -39 -66 -72 -141 l-60 -137 -67
141 c-64 135 -68 140 -97 140 l-30 0 46 -97z"/>
<path d="M9803 5574 c-3 -8 -3 -69 -1 -134 6 -140 20 -173 88 -208 83 -43 183
-14 220 63 17 35 20 62 20 168 l0 127 -30 0 -30 0 0 -131 0 -131 -29 -29 c-41
-41 -98 -41 -143 0 l-33 29 -4 131 -3 131 -24 0 c-14 0 -27 -7 -31 -16z"/>
<path d="M12550 5405 l0 -185 30 0 30 0 0 124 c0 118 1 126 25 154 18 22 37
32 70 36 40 6 45 10 45 33 0 25 -2 25 -46 20 -25 -2 -59 -14 -74 -25 l-28 -21
-6 24 c-4 16 -13 25 -26 25 -19 0 -20 -7 -20 -185z"/>
<path d="M13740 4725 l0 -45 50 0 50 0 0 45 0 45 -50 0 -50 0 0 -45z"/>
<path d="M11720 4510 l0 -250 45 0 45 0 0 250 0 250 -45 0 -45 0 0 -250z"/>
<path d="M8967 4733 c-4 -3 -7 -111 -7 -240 l0 -233 55 0 55 0 0 75 0 75 55 0
c69 0 129 24 156 62 63 88 33 205 -65 249 -31 14 -65 19 -142 19 -55 0 -104
-3 -107 -7z m223 -113 c26 -26 26 -72 0 -95 -11 -10 -42 -20 -70 -23 l-50 -5
0 72 0 71 50 0 c37 0 55 -5 70 -20z"/>
<path d="M12662 4723 c-5 -10 -47 -112 -92 -228 -45 -115 -85 -216 -87 -222
-4 -10 10 -13 50 -13 l54 0 18 45 17 46 96 -3 95 -3 15 -42 14 -43 54 0 c37 0
54 4 53 13 0 6 -42 113 -93 237 l-92 225 -46 3 c-37 2 -49 -1 -56 -15z m89
-208 l28 -75 -64 0 -64 0 13 33 c7 17 21 54 30 80 10 27 21 45 24 42 3 -3 18
-39 33 -80z"/>
<path d="M10131 4643 c-39 -42 -71 -80 -71 -85 0 -4 16 -8 35 -8 l35 0 0 -96
c0 -149 34 -194 149 -194 l51 0 0 45 c0 45 0 45 -34 45 -55 0 -66 19 -66 116
l0 84 50 0 50 0 0 40 0 40 -50 0 -50 0 0 45 c0 32 -4 45 -14 45 -8 0 -46 -35
-85 -77z"/>
<path d="M13472 4641 c-40 -44 -72 -82 -72 -85 0 -3 16 -6 35 -6 l35 0 0 -90
c0 -56 5 -104 14 -125 20 -48 68 -75 134 -75 l52 0 0 45 c0 44 0 45 -33 45
-54 0 -67 23 -67 118 l0 82 50 0 50 0 0 40 0 40 -50 0 -50 0 0 45 c0 30 -4 45
-13 45 -7 0 -46 -36 -85 -79z"/>
<path d="M9766 4625 c-47 -17 -94 -59 -112 -102 -35 -82 -3 -193 69 -241 35
-23 51 -27 112 -27 63 0 77 4 113 29 72 50 103 157 68 239 -26 64 -112 118
-186 117 -14 -1 -42 -7 -64 -15z m147 -116 c19 -24 23 -89 6 -121 -6 -11 -26
-26 -46 -34 -42 -18 -94 -5 -118 29 -19 28 -19 96 0 125 32 44 121 45 158 1z"/>
<path d="M10479 4613 c-81 -42 -118 -122 -98 -213 37 -162 245 -203 352 -68
78 98 22 263 -100 297 -60 17 -95 13 -154 -16z m166 -105 c46 -55 24 -139 -43
-158 -26 -8 -45 -8 -64 -1 -83 32 -80 167 5 189 46 12 74 4 102 -30z"/>
<path d="M10947 4625 c-165 -58 -168 -291 -5 -360 91 -37 199 1 244 87 22 42
18 48 -36 48 -38 0 -52 -4 -60 -19 -13 -26 -70 -44 -101 -32 -66 25 -87 114
-40 165 34 36 102 37 135 1 18 -20 33 -25 70 -25 50 0 54 6 32 48 -44 84 -145
121 -239 87z"/>
<path d="M11376 4625 c-47 -17 -94 -59 -112 -102 -35 -82 -3 -193 69 -241 35
-23 51 -27 112 -27 63 0 77 4 113 29 72 50 103 157 68 239 -26 64 -112 118
-186 117 -14 -1 -42 -7 -64 -15z m147 -116 c19 -24 23 -89 6 -121 -6 -11 -26
-26 -46 -34 -42 -18 -94 -5 -118 29 -19 28 -19 96 0 125 32 44 121 45 158 1z"/>
<path d="M12016 4625 c-47 -17 -94 -59 -112 -102 -35 -82 -3 -193 69 -241 35
-23 51 -27 112 -27 63 0 77 4 113 29 72 50 103 157 68 239 -26 64 -112 118
-186 117 -14 -1 -42 -7 -64 -15z m147 -116 c19 -24 23 -89 6 -121 -6 -11 -26
-26 -46 -34 -42 -18 -94 -5 -118 29 -19 28 -19 96 0 125 32 44 121 45 158 1z"/>
<path d="M13166 4626 c-21 -8 -43 -19 -49 -25 -16 -16 -25 -13 -32 9 -5 15
-15 20 -41 20 l-34 0 0 -185 0 -185 50 0 50 0 0 110 c0 119 9 152 47 169 36
16 58 14 79 -10 16 -18 20 -40 22 -145 l4 -124 50 0 50 0 -4 138 c-4 146 -16
187 -61 216 -34 23 -88 27 -131 12z"/>
<path d="M9380 4445 l0 -185 49 0 49 0 4 120 c3 136 9 148 77 157 l41 6 0 45
0 45 -45 -6 c-25 -2 -55 -13 -66 -23 -17 -16 -22 -16 -29 -4 -6 8 -10 18 -10
23 0 4 -16 7 -35 7 l-35 0 0 -185z"/>
<path d="M13740 4445 l0 -185 50 0 50 0 0 185 0 185 -50 0 -50 0 0 -185z"/>
<path d="M11800 3775 c0 -32 2 -35 30 -35 28 0 30 3 30 35 0 32 -2 35 -30 35
-28 0 -30 -3 -30 -35z"/>
<path d="M9125 3791 c-49 -12 -89 -37 -128 -80 -41 -46 -57 -93 -57 -171 1
-176 185 -291 345 -216 78 36 124 100 140 195 l7 41 -131 0 -131 0 0 -40 0
-40 75 0 c69 0 74 -1 64 -17 -26 -41 -62 -58 -126 -58 -55 0 -65 3 -92 29 -39
38 -55 86 -46 142 17 119 157 164 243 78 29 -29 41 -34 83 -34 27 0 49 2 49 5
0 3 -9 23 -19 44 -49 95 -169 148 -276 122z"/>
<path d="M12858 3703 c-32 -32 -58 -62 -58 -66 0 -4 14 -7 30 -7 l30 0 0 -111
c0 -129 13 -169 65 -193 18 -9 51 -16 74 -16 36 0 41 3 41 24 0 20 -6 24 -41
29 -72 9 -79 24 -79 154 l0 113 55 0 c52 0 55 1 55 25 0 24 -3 25 -54 25 l-55
0 -3 40 -3 41 -57 -58z"/>
<path d="M9859 3662 c-66 -34 -99 -90 -99 -166 0 -55 25 -121 56 -148 55 -48
141 -60 211 -29 35 16 42 17 47 5 3 -8 19 -14 41 -14 l35 0 0 185 0 185 -31 0
c-18 0 -37 -7 -43 -15 -10 -14 -16 -13 -51 5 -54 27 -103 25 -166 -8z m161
-87 c5 -3 17 -20 26 -37 41 -79 -36 -166 -121 -138 -45 15 -65 44 -65 96 0 46
34 90 73 96 22 4 68 -5 87 -17z"/>
<path d="M10302 3670 c-31 -14 -47 -29 -58 -56 -32 -75 13 -134 116 -155 72
-14 91 -31 65 -59 -25 -27 -61 -25 -89 5 -18 19 -33 25 -65 25 -36 0 -41 -3
-41 -24 0 -83 137 -134 234 -86 50 24 67 50 68 101 1 72 -27 93 -165 123 -33
8 -44 30 -27 51 18 21 56 19 80 -5 14 -14 33 -20 65 -20 25 0 45 2 45 5 0 3
-7 21 -15 41 -16 40 -78 74 -135 74 -19 0 -54 -9 -78 -20z"/>
<path d="M10712 3679 c-53 -16 -108 -79 -121 -137 -13 -62 5 -140 40 -179 56
-60 153 -79 224 -43 47 24 45 24 45 5 0 -11 11 -15 40 -15 l40 0 0 185 0 185
-35 0 c-21 0 -37 -6 -43 -16 -8 -15 -11 -15 -34 0 -32 21 -112 29 -156 15z
m151 -120 c21 -26 23 -97 2 -126 -24 -34 -76 -47 -118 -29 -20 8 -41 24 -47
36 -17 32 -15 86 4 115 31 47 121 49 159 4z"/>
<path d="M11145 3678 c-71 -25 -102 -91 -72 -153 16 -33 42 -47 145 -74 47
-13 58 -42 23 -61 -30 -16 -50 -12 -77 15 -19 19 -35 25 -69 25 l-44 0 9 -31
c18 -62 74 -99 150 -99 89 0 150 51 150 125 0 59 -33 91 -111 106 -74 15 -98
31 -83 56 16 26 59 28 83 4 15 -15 34 -21 65 -21 41 0 44 2 39 23 -18 74 -120
116 -208 85z"/>
<path d="M12551 3680 c-18 -5 -46 -17 -61 -28 -30 -22 -40 -20 -40 10 0 11 -7
18 -20 18 -19 0 -20 -7 -20 -185 l0 -185 25 0 25 0 0 105 c0 156 31 215 114
215 82 0 96 -27 96 -195 l0 -125 30 0 30 0 0 133 c0 106 -3 139 -18 166 -30
60 -90 86 -161 71z"/>
<path d="M13239 3680 c-124 -22 -190 -161 -131 -277 88 -172 362 -107 362 85
0 62 -13 98 -48 135 -48 51 -110 70 -183 57z m108 -70 c45 -27 65 -62 65 -114
0 -82 -55 -136 -137 -136 -104 0 -166 119 -109 208 22 34 74 62 114 62 19 0
49 -9 67 -20z"/>
<path d="M13852 3678 c-110 -24 -172 -156 -123 -263 40 -90 141 -134 232 -103
42 14 78 41 101 76 42 64 -4 72 -68 12 -37 -34 -50 -40 -87 -40 -121 0 -181
144 -96 229 32 32 83 47 124 37 14 -4 43 -22 64 -41 21 -19 48 -35 60 -35 24
0 25 3 10 33 -41 80 -124 116 -217 95z"/>
<path d="M14277 3675 c-57 -14 -111 -63 -128 -113 -17 -51 -7 -134 22 -176 91
-134 309 -97 348 59 37 147 -92 269 -242 230z m119 -61 c45 -22 79 -90 69
-141 -15 -80 -70 -120 -152 -110 -38 4 -54 12 -80 41 -29 31 -33 43 -33 89 0
59 16 89 64 118 38 23 87 24 132 3z"/>
<path d="M14761 3680 c-18 -4 -46 -17 -62 -29 -35 -26 -37 -26 -41 2 -2 14
-11 23 -25 25 l-23 3 0 -185 0 -186 30 0 30 0 0 110 c0 161 27 210 116 210 35
0 47 -5 68 -31 25 -29 26 -35 26 -160 l0 -129 30 0 30 0 0 128 c0 103 -4 135
-19 169 -27 59 -91 88 -160 73z"/>
<path d="M9500 3495 l0 -185 50 0 50 0 0 114 c0 134 9 154 78 163 l42 6 0 43
c0 43 -1 44 -33 44 -18 0 -50 -9 -70 -19 -37 -19 -38 -19 -48 0 -6 12 -20 19
-39 19 l-30 0 0 -185z"/>
<path d="M11800 3480 c0 -200 0 -201 -25 -225 -13 -14 -36 -25 -50 -25 -20 0
-25 -5 -25 -25 0 -22 4 -25 36 -25 20 0 48 7 63 16 53 32 56 43 59 272 l3 212
-30 0 -31 0 0 -200z"/>
<path d="M11970 3547 c0 -156 11 -188 80 -224 55 -29 104 -29 160 0 69 35 80
66 80 224 l0 133 -25 0 -25 0 0 -102 c0 -57 -5 -120 -10 -140 -30 -108 -175
-103 -200 7 -5 22 -10 84 -10 138 0 97 0 97 -25 97 l-25 0 0 -133z"/>
<path d="M11440 3345 c0 -24 5 -35 15 -35 20 0 19 -29 -1 -51 -27 -30 -11 -44
19 -18 23 19 29 35 34 82 l6 57 -37 0 c-35 0 -36 -1 -36 -35z"/>
<path d="M8110 3120 c0 -5 5 -10 10 -10 6 0 10 5 10 10 0 6 -4 10 -10 10 -5 0
-10 -4 -10 -10z"/>
<path d="M8046 3113 c-12 -12 -6 -43 9 -43 8 0 15 9 15 19 0 21 -13 34 -24 24z"/>
<path d="M7930 3070 c0 -5 7 -7 15 -4 8 4 15 8 15 10 0 2 -7 4 -15 4 -8 0 -15
-4 -15 -10z"/>
<path d="M8000 3070 c0 -5 5 -10 10 -10 6 0 10 5 10 10 0 6 -4 10 -10 10 -5 0
-10 -4 -10 -10z"/>
<path d="M8365 2910 c-3 -5 1 -10 9 -10 9 0 16 5 16 10 0 6 -4 10 -9 10 -6 0
-13 -4 -16 -10z"/>
<path d="M8367 2862 c6 -25 -32 -49 -104 -65 -31 -7 -58 -18 -60 -24 -4 -12
30 -35 56 -39 8 -2 17 -8 21 -15 10 -15 66 3 62 20 -1 7 7 9 23 5 25 -6 25 -6
25 65 0 54 -3 71 -14 71 -9 0 -12 -7 -9 -18z m-112 -92 c3 -5 -1 -10 -9 -10
-9 0 -16 5 -16 10 0 6 4 10 9 10 6 0 13 -4 16 -10z"/>
<path d="M9400 2600 l0 -250 30 0 30 0 0 250 0 250 -30 0 -30 0 0 -250z"/>
<path d="M11880 2600 l0 -250 30 0 30 0 0 126 0 126 34 34 c27 27 42 34 73 34
82 0 103 -43 103 -212 l0 -108 25 0 25 0 0 136 c0 153 -10 188 -61 218 -43 25
-119 24 -164 -3 l-35 -20 0 84 0 85 -30 0 -30 0 0 -250z"/>
<path d="M9760 2591 l0 -241 103 0 c154 1 228 37 273 134 55 118 13 251 -98
311 -45 24 -65 28 -164 33 l-114 5 0 -242z m253 156 c113 -74 114 -247 3 -312
-36 -21 -56 -25 -119 -25 l-77 0 0 181 0 182 84 -5 c55 -3 93 -10 109 -21z"/>
<path d="M10761 2623 c-47 -114 -91 -223 -98 -240 -13 -33 -13 -33 17 -33 27
0 33 6 55 55 l24 56 118 -3 117 -3 21 -52 c18 -49 22 -53 52 -53 l33 0 -19 48
c-11 26 -55 133 -99 237 -76 180 -82 190 -108 193 -29 3 -30 1 -113 -205z
m158 13 c22 -55 41 -103 41 -108 0 -4 -40 -8 -89 -8 l-89 0 35 88 c19 48 39
98 44 111 5 13 11 22 13 20 2 -2 22 -49 45 -103z"/>
<path d="M11617 2737 l-57 -66 32 -3 33 -3 5 -126 c4 -88 9 -131 19 -143 23
-28 67 -46 111 -46 36 0 40 2 40 25 0 18 -5 25 -19 25 -38 0 -79 22 -90 49 -7
16 -11 67 -9 122 l3 94 58 3 c53 3 57 5 57 27 0 24 -3 25 -59 25 l-60 0 -3 41
-3 41 -58 -65z"/>
<path d="M9105 2723 c-11 -2 -30 -6 -42 -8 -34 -8 -84 -55 -104 -100 -62 -136
51 -293 195 -271 52 9 111 47 131 86 l16 30 -30 0 c-15 0 -34 -7 -42 -16 -53
-64 -175 -55 -215 18 -27 47 -24 48 141 48 l155 0 0 37 c0 57 -35 120 -83 147
-44 25 -89 35 -122 29z m84 -67 c31 -16 61 -56 61 -81 0 -13 -19 -15 -119 -15
-69 0 -122 4 -126 10 -10 16 27 68 59 84 39 20 89 20 125 2z"/>
<path d="M11314 2718 c-22 -5 -50 -17 -62 -28 -27 -25 -29 -25 -36 5 -4 16
-13 25 -26 25 -19 0 -20 -7 -20 -185 l0 -185 29 0 29 0 4 131 3 131 33 29 c42
38 98 40 139 5 28 -24 28 -25 31 -160 l4 -136 30 0 30 0 -4 138 c-2 112 -6
143 -22 168 -33 55 -92 78 -162 62z"/>
<path d="M12427 2715 c-57 -14 -111 -63 -128 -113 -17 -51 -7 -134 22 -176 91
-134 309 -97 348 59 37 147 -92 269 -242 230z m119 -61 c45 -22 79 -90 69
-141 -15 -80 -70 -120 -152 -110 -38 4 -54 12 -80 41 -29 31 -33 43 -33 89 0
59 16 89 64 118 38 23 87 24 132 3z"/>
<path d="M12911 2720 c-18 -5 -46 -17 -61 -28 -30 -22 -40 -20 -40 10 0 11 -7
18 -20 18 -19 0 -20 -7 -20 -185 l0 -185 25 0 25 0 0 105 c0 156 31 215 114
215 82 0 96 -27 96 -195 l0 -125 30 0 30 0 0 133 c0 106 -3 139 -18 166 -30
60 -90 86 -161 71z"/>
<path d="M10250 2536 l0 -186 30 0 30 0 0 110 c0 157 16 189 103 205 30 6 37
11 37 31 0 20 -5 24 -31 24 -34 0 -99 -27 -99 -41 0 -19 -19 -8 -22 14 -2 14
-11 23 -25 25 l-23 3 0 -185z"/>
<path d="M13160 2717 c0 -2 36 -80 80 -172 74 -154 80 -171 69 -196 -20 -50
-55 -79 -94 -79 -31 0 -35 -3 -35 -25 0 -23 4 -25 45 -25 75 0 100 32 210 274
52 115 95 212 95 217 0 5 -13 9 -28 9 -26 0 -31 -8 -86 -135 -32 -74 -61 -135
-65 -135 -3 0 -34 60 -67 133 -58 125 -63 132 -93 135 -17 2 -31 1 -31 -1z"/>
<path d="M13590 2385 c0 -33 2 -35 35 -35 33 0 35 2 35 35 0 33 -2 35 -35 35
-33 0 -35 -2 -35 -35z"/>
<path d="M8253 2393 c-7 -3 -13 -15 -13 -28 0 -17 7 -24 28 -28 15 -3 32 -1
38 4 6 5 14 6 17 2 4 -3 9 1 13 10 11 30 -41 55 -83 40z"/>
<path d="M7802 2278 c-15 -15 -14 -125 1 -192 12 -51 32 -70 40 -39 4 14 5 13
6 -4 0 -13 6 -23 12 -23 6 0 4 -7 -5 -15 -8 -8 -19 -15 -24 -15 -5 0 -12 -17
-14 -37 -5 -38 1 -59 9 -35 9 24 25 12 19 -14 -7 -26 -6 -27 33 -20 38 6 41 5
41 -18 0 -17 -7 -26 -26 -30 -30 -8 -46 0 -20 10 22 8 21 23 -2 17 -24 -6 -47
-80 -31 -99 7 -8 12 -31 11 -50 -1 -35 18 -72 62 -117 15 -16 20 -17 28 -6 7
11 11 11 15 2 2 -7 19 -12 36 -12 18 1 24 3 14 6 -9 2 -15 9 -12 14 9 14 35
11 35 -5 0 -12 6 -12 41 0 76 27 124 57 180 114 80 82 146 220 105 220 -7 0
-19 7 -26 15 -11 13 -14 13 -25 -2 -13 -17 -14 -17 -33 0 -11 10 -26 32 -32
48 -12 28 -30 40 -30 19 0 -19 -28 -10 -33 10 -7 29 13 66 43 76 31 12 70 -4
70 -28 0 -10 3 -18 8 -18 4 -1 26 -5 49 -9 l42 -8 0 113 c0 71 -4 114 -11 114
-6 0 -7 -15 -3 -39 5 -30 3 -40 -10 -45 -9 -3 -18 1 -22 10 -3 8 -11 13 -19
10 -7 -3 -15 0 -18 7 -3 8 -7 9 -13 2 -4 -6 -24 -9 -43 -9 -19 1 -47 2 -62 3
-17 1 -28 7 -28 15 0 9 -10 13 -25 12 -14 0 -25 -6 -25 -12 0 -7 -7 -14 -15
-18 -8 -3 -15 -14 -15 -25 0 -16 -9 -21 -52 -26 -29 -3 -66 -1 -83 4 -16 5
-24 10 -17 10 6 1 12 8 12 17 0 13 -7 15 -30 11 -32 -7 -38 1 -18 21 8 8 9 12
1 12 -6 0 -13 -5 -15 -12 -3 -7 -12 -9 -22 -5 -15 6 -17 14 -12 41 5 26 3 35
-10 40 -20 8 -18 8 -32 -6z m104 -194 c-4 -12 -1 -14 14 -9 15 5 18 3 14 -9
-6 -15 -36 -17 -50 -3 -9 9 3 37 17 37 6 0 8 -7 5 -16z m52 -36 c-2 -6 -10
-14 -16 -16 -7 -2 -10 2 -6 12 7 18 28 22 22 4z m212 -33 c0 -8 -4 -15 -10
-15 -5 0 -10 7 -10 15 0 8 5 15 10 15 6 0 10 -7 10 -15z m-202 -26 c-2 -6 -8
-10 -13 -10 -5 0 -11 4 -13 10 -2 6 4 11 13 11 9 0 15 -5 13 -11z m62 -24 c0
-9 11 -21 25 -27 35 -16 31 -23 -12 -21 -21 1 -53 2 -70 2 -36 1 -49 31 -13
31 13 0 18 5 14 15 -5 11 1 15 25 15 21 0 31 -5 31 -15z m213 -20 c-3 -8 -11
-15 -19 -15 -17 0 -18 7 -1 24 15 17 28 11 20 -9z m-351 -27 c-9 -9 -15 -9
-24 0 -9 9 -7 12 12 12 19 0 21 -3 12 -12z m83 -17 c3 -5 1 -13 -5 -16 -8 -5
-7 -11 1 -21 13 -15 2 -18 -20 -5 -8 5 -11 16 -6 30 7 22 20 27 30 12z m63
-16 c-2 -5 -11 -10 -20 -10 -19 -2 -23 7 -11 19 10 10 35 3 31 -9z m-111 -101
c-3 -3 -12 -4 -19 -1 -8 3 -5 6 6 6 11 1 17 -2 13 -5z m123 -74 c0 -5 -4 -10
-10 -10 -5 0 -10 5 -10 10 0 6 5 10 10 10 6 0 10 -4 10 -10z m10 -100 c0 -5
-2 -10 -4 -10 -3 0 -8 5 -11 10 -3 6 -1 10 4 10 6 0 11 -4 11 -10z"/>
<path d="M865 2102 c-31 -6 -45 -22 -45 -50 0 -24 2 -24 45 -19 32 5 45 3 46
-6 1 -6 2 -23 2 -37 1 -16 9 -26 22 -28 11 -3 24 -9 28 -16 6 -7 7 -4 3 7 -3
10 0 20 7 23 20 7 19 45 -1 43 -28 -2 -42 1 -41 9 1 4 1 21 0 38 -1 33 -22 44
-66 36z"/>
<path d="M750 1908 c0 -27 22 -68 37 -68 7 0 13 -4 13 -9 0 -5 10 -11 22 -13
27 -4 38 -38 13 -38 -14 0 -15 3 -5 15 10 12 10 15 -3 15 -28 0 -27 -17 2 -57
41 -56 106 -107 187 -145 68 -32 71 -33 238 -36 132 -3 170 -1 177 9 6 11 14
11 42 1 18 -7 47 -12 63 -11 27 0 28 1 7 9 -13 5 -23 15 -23 23 0 7 -9 13 -20
13 -10 -1 -20 4 -21 9 -2 13 -55 35 -85 35 -13 0 -29 -9 -36 -19 -6 -10 -18
-17 -25 -14 -8 3 -13 -3 -13 -16 0 -12 -4 -21 -10 -21 -5 0 -10 3 -10 8 0 4
-18 15 -40 26 -44 21 -60 60 -39 95 11 16 10 25 -1 45 -11 22 -21 26 -64 27
-43 1 -46 2 -21 8 l30 7 -38 23 c-23 15 -36 29 -33 37 4 9 -2 14 -17 13 -12 0
-16 -3 -9 -6 6 -2 9 -9 6 -14 -3 -6 -11 -5 -20 2 -10 8 -14 8 -14 0 0 -6 -7
-11 -15 -11 -27 0 -16 -28 16 -39 24 -8 29 -15 24 -30 -5 -17 -1 -20 31 -23
43 -3 56 -23 22 -31 -15 -4 -36 2 -62 20 -32 21 -43 23 -57 14 -15 -9 -20 -7
-30 10 -6 11 -26 27 -46 35 -19 8 -57 30 -84 49 -27 19 -53 35 -58 35 -6 0
-15 8 -20 18 -10 16 -10 16 -11 0z m165 -198 c3 -5 1 -10 -4 -10 -6 0 -11 5
-11 10 0 6 2 10 4 10 3 0 8 -4 11 -10z"/>
<path d="M1595 1630 c-3 -5 -2 -10 4 -10 5 0 13 5 16 10 3 6 2 10 -4 10 -5 0
-13 -4 -16 -10z"/>
</g>
</svg>
